M48
;Layer_Color=9474304
;FILE_FORMAT=2:4
INCH,TZ
;TYPE=PLATED
T1F00S00C0.0100
T2F00S00C0.0394
T3F00S00C0.0472
T4F00S00C0.0512
T5F00S00C0.0559
T6F00S00C0.0787
;TYPE=NON_PLATED
T7F00S00C0.0394
T8F00S00C0.2362
%
T01
X33300Y22200
X34720Y22800
Y23798
X34570Y24790
X34560Y25810
X34720Y26790
Y27790
X34860Y21400
X35110
X35360
X35610
X35870
X36120
X36370
X39800Y21790
X40500Y24500
X46100Y23650
X46090Y25510
Y28450
X24500Y29200
Y29450
X24250
Y29200
X24000
Y29450
Y29700
X24250
X24500
Y29950
Y30200
Y30450
X24250
Y30700
X24490
X24500Y30950
Y31200
X24250
X24000
Y30950
Y30700
Y30450
Y30200
X24250
Y29950
X24000
X23750
Y29700
Y29450
X23500
X23250
X23000
X22750
Y29200
X23000
X23250
X23500
X23750
X23500Y29700
X23250
X23000
X22750
X22500
Y29450
Y29200
X22250
Y29450
X22000
X21750
X21500
Y29200
X21750
X22000
Y29700
X22250
Y29950
Y30200
X22000
X21750
X21500
Y30450
X21750
X22000
Y30700
X21750
X21500
Y30950
Y31200
X21750
X22000
X22250
Y30950
X22000
X21750
X22250Y30700
Y30450
X22500
Y30200
Y29950
X22750
X23000
X23250
X23500
Y30200
X23250
X23000
X22750
Y30450
X23000
X23250
X23500
X23750
Y30200
Y30700
Y30950
Y31200
X23500
X23250
X23000
X22750
X22500
Y30950
X22750
X23000
X23250
X23500
Y30700
X23250
X23000
X22750
X22500
X22000Y29950
X21750
Y29700
X21500
Y29950
X20200Y29428
X19060Y29530
Y29280
X18267Y29250
Y29000
X18017
X17783
X17533
X17283
X17033
Y28750
Y28500
Y28250
Y28000
X17283
Y28250
Y28500
Y28750
X17533
Y28500
Y28250
Y28000
X17783
X18017
Y28250
X17783
Y28500
X18017
X18267
Y28750
X18017
X17783
X17767Y29250
X17517
X17267
X17017
X16767
Y29000
Y28750
Y28500
X16517
Y28750
Y29000
Y29250
Y29500
X16767
X17017
X17267
X17517
X17767
X18017
Y29250
X18267Y29500
Y28250
Y28000
Y27750
Y27500
X18017
X17767
Y27750
X17517
X17267
X17017
X16767
Y28000
Y28250
X16517
Y28000
Y27750
Y27500
X16767
X17017
X17267
X17517
X18017Y27750
X17250Y24860
X17000
Y23760
X17250
X24250Y30950
Y31450
Y31700
X24500
Y31450
X24000
Y31700
X23750
X23500
X23250
Y31450
X23500
X23750
X23000
X22750
X22500
X22250
X22000
X21750
X21500
Y31700
X21750
X22000
X22250
X22500
X22750
X23000
X22020Y32262
Y32512
Y32762
Y33012
X29850Y33830
X28300Y43150
X26900Y43750
X31150Y46000
X31300Y37800
Y37300
Y36600
T02
X32510Y21790
Y22790
Y23790
Y24790
Y25790
Y26790
Y27790
Y28790
Y29790
Y30790
X34000Y31200
X35000
X26510Y30790
Y29790
Y28790
Y27790
Y26790
Y25790
Y24790
Y23790
Y22790
Y21790
Y31790
Y32790
Y33790
Y34790
Y35790
Y36790
Y37790
Y38790
Y39790
X25000Y40500
X24850Y36600
X23350Y34300
X17287
X19334Y45875
X21303
X32510Y40790
Y39790
Y38790
Y37790
Y36790
Y35790
Y34790
Y33790
Y32790
Y31790
X34000Y32200
Y33200
Y34200
Y35200
Y36200
Y37200
X35000
Y36200
Y35200
Y34200
Y33200
Y32200
X30917Y49120
Y52100
X30900Y55100
X26963
X24650Y54600
X24593Y51800
X26980Y52100
Y49120
X24593Y48694
X21640Y49560
Y52666
X21697Y55466
T03
X48348Y23417
Y25280
Y27142
Y29004
Y30866
X51760
Y29000
Y27200
X38269Y26667
Y25408
Y23990
X37088Y24778
Y26037
Y27297
Y28557
Y29817
X38269Y29187
Y27927
Y31156
X37088Y31786
Y33754
X38269Y33124
Y35093
X37088Y35880
X48348Y36453
Y34591
Y32728
X51760
Y34591
X51800Y36200
X27650Y57661
X24650
X21640
T04
X18280Y47819
Y57661
T05
X33819Y54740
X36772
X39724
X43661
T06
X42600Y43750
X46600
T07
X26510Y40790
T08
X44096Y23232
Y36638
X38740Y48040
M30
