G04*
G04 #@! TF.GenerationSoftware,Altium Limited,Altium Designer,19.0.12 (326)*
G04*
G04 Layer_Color=8388736*
%FSLAX25Y25*%
%MOIN*%
G70*
G01*
G75*
%ADD14R,0.05800X0.06300*%
%ADD15R,0.06300X0.05800*%
%ADD16C,0.06800*%
%ADD17C,0.08800*%
%ADD18C,0.12611*%
D14*
X69500Y217000D02*
D03*
X61500D02*
D03*
X228025Y43397D02*
D03*
X220024D02*
D03*
X134025D02*
D03*
X126024D02*
D03*
X326524D02*
D03*
X318525D02*
D03*
X311024D02*
D03*
X303025D02*
D03*
X212024D02*
D03*
X204025D02*
D03*
X118025D02*
D03*
X110024D02*
D03*
X52525D02*
D03*
X44524D02*
D03*
X36525D02*
D03*
X28525D02*
D03*
D15*
X90544Y191397D02*
D03*
Y199397D02*
D03*
X100544Y191397D02*
D03*
Y199397D02*
D03*
X110544Y191397D02*
D03*
Y199397D02*
D03*
X160544Y191897D02*
D03*
Y199897D02*
D03*
X170544Y191897D02*
D03*
Y199897D02*
D03*
X180544Y191897D02*
D03*
Y199897D02*
D03*
X190544Y191897D02*
D03*
Y199897D02*
D03*
D16*
X168025Y76397D02*
D03*
Y86397D02*
D03*
X158025Y76397D02*
D03*
Y86397D02*
D03*
X148024Y76397D02*
D03*
Y86397D02*
D03*
X138024Y76397D02*
D03*
Y86397D02*
D03*
X128024Y76397D02*
D03*
Y86397D02*
D03*
X118025Y76397D02*
D03*
Y86397D02*
D03*
X108025Y76397D02*
D03*
Y86397D02*
D03*
D17*
X19025Y146897D02*
D03*
Y136897D02*
D03*
Y126897D02*
D03*
Y195897D02*
D03*
Y185897D02*
D03*
Y175897D02*
D03*
X210544Y225921D02*
D03*
X200544D02*
D03*
X190544D02*
D03*
X180544D02*
D03*
X170544D02*
D03*
X160544D02*
D03*
X150544D02*
D03*
X140544D02*
D03*
X130544D02*
D03*
X120544D02*
D03*
X110544D02*
D03*
X100544D02*
D03*
X90544D02*
D03*
X80544D02*
D03*
X70544D02*
D03*
X60040D02*
D03*
X41524Y4897D02*
D03*
Y30897D02*
D03*
X23525Y4897D02*
D03*
Y30897D02*
D03*
X123024Y4897D02*
D03*
Y30897D02*
D03*
X105025Y4897D02*
D03*
Y30897D02*
D03*
X217024Y4897D02*
D03*
Y30897D02*
D03*
X199024Y4897D02*
D03*
Y30897D02*
D03*
X316024Y4897D02*
D03*
Y30897D02*
D03*
X298025Y4897D02*
D03*
Y30897D02*
D03*
D18*
X333662Y225921D02*
D03*
Y103874D02*
D03*
X38387Y103873D02*
D03*
Y225921D02*
D03*
M02*
