G04*
G04 #@! TF.GenerationSoftware,Altium Limited,Altium Designer,19.0.12 (326)*
G04*
G04 Layer_Physical_Order=1*
G04 Layer_Color=255*
%FSLAX25Y25*%
%MOIN*%
G70*
G01*
G75*
%ADD19R,0.05000X0.05500*%
%ADD20R,0.05500X0.05000*%
%ADD21C,0.08000*%
%ADD22C,0.03000*%
%ADD23C,0.05000*%
%ADD24C,0.06000*%
%ADD25C,0.08000*%
%ADD26C,0.11811*%
G36*
X202888Y229162D02*
X197714Y228747D01*
X197873Y228937D01*
X197983Y229140D01*
X198044Y229355D01*
X198055Y229583D01*
X198017Y229823D01*
X197930Y230076D01*
X197794Y230341D01*
X197608Y230618D01*
X197373Y230908D01*
X197089Y231211D01*
X199865Y232678D01*
X202888Y229162D01*
D02*
G37*
G36*
X62783Y222985D02*
X62732Y222863D01*
X62687Y222701D01*
X62648Y222496D01*
X62615Y222251D01*
X62567Y221634D01*
X62540Y220398D01*
X57540D01*
X57537Y220852D01*
X57432Y222496D01*
X57393Y222701D01*
X57348Y222863D01*
X57297Y222985D01*
X57240Y223064D01*
X62840D01*
X62783Y222985D01*
D02*
G37*
G36*
X193097Y222802D02*
X192876Y222526D01*
X192681Y222236D01*
X192512Y221932D01*
X192369Y221614D01*
X192252Y221282D01*
X192161Y220936D01*
X192096Y220575D01*
X192057Y220201D01*
X192044Y219813D01*
X189044D01*
X189031Y220201D01*
X188992Y220575D01*
X188927Y220936D01*
X188836Y221282D01*
X188719Y221614D01*
X188576Y221932D01*
X188407Y222236D01*
X188212Y222526D01*
X187991Y222802D01*
X187744Y223064D01*
X193344D01*
X193097Y222802D01*
D02*
G37*
G36*
X183097D02*
X182876Y222526D01*
X182681Y222236D01*
X182512Y221932D01*
X182369Y221614D01*
X182252Y221282D01*
X182161Y220936D01*
X182096Y220575D01*
X182057Y220201D01*
X182044Y219813D01*
X179044D01*
X179031Y220201D01*
X178992Y220575D01*
X178927Y220936D01*
X178836Y221282D01*
X178719Y221614D01*
X178576Y221932D01*
X178407Y222236D01*
X178212Y222526D01*
X177991Y222802D01*
X177744Y223064D01*
X183344D01*
X183097Y222802D01*
D02*
G37*
G36*
X173097D02*
X172876Y222526D01*
X172681Y222236D01*
X172512Y221932D01*
X172369Y221614D01*
X172252Y221282D01*
X172161Y220936D01*
X172096Y220575D01*
X172057Y220201D01*
X172044Y219813D01*
X169044D01*
X169031Y220201D01*
X168992Y220575D01*
X168927Y220936D01*
X168836Y221282D01*
X168719Y221614D01*
X168576Y221932D01*
X168407Y222236D01*
X168212Y222526D01*
X167991Y222802D01*
X167744Y223064D01*
X173344D01*
X173097Y222802D01*
D02*
G37*
G36*
X163097D02*
X162876Y222526D01*
X162681Y222236D01*
X162512Y221932D01*
X162369Y221614D01*
X162252Y221282D01*
X162161Y220936D01*
X162096Y220575D01*
X162057Y220201D01*
X162044Y219813D01*
X159044D01*
X159031Y220201D01*
X158992Y220575D01*
X158927Y220936D01*
X158836Y221282D01*
X158719Y221614D01*
X158576Y221932D01*
X158407Y222236D01*
X158212Y222526D01*
X157991Y222802D01*
X157744Y223064D01*
X163344D01*
X163097Y222802D01*
D02*
G37*
G36*
X113097D02*
X112876Y222526D01*
X112681Y222236D01*
X112512Y221932D01*
X112369Y221614D01*
X112252Y221282D01*
X112161Y220936D01*
X112096Y220575D01*
X112057Y220201D01*
X112044Y219813D01*
X109044D01*
X109031Y220201D01*
X108992Y220575D01*
X108927Y220936D01*
X108836Y221282D01*
X108719Y221614D01*
X108576Y221932D01*
X108407Y222236D01*
X108212Y222526D01*
X107991Y222802D01*
X107744Y223064D01*
X113344D01*
X113097Y222802D01*
D02*
G37*
G36*
X103097D02*
X102876Y222526D01*
X102681Y222236D01*
X102512Y221932D01*
X102369Y221614D01*
X102252Y221282D01*
X102161Y220936D01*
X102096Y220575D01*
X102057Y220201D01*
X102044Y219813D01*
X99044D01*
X99031Y220201D01*
X98992Y220575D01*
X98927Y220936D01*
X98836Y221282D01*
X98719Y221614D01*
X98576Y221932D01*
X98407Y222236D01*
X98212Y222526D01*
X97991Y222802D01*
X97744Y223064D01*
X103344D01*
X103097Y222802D01*
D02*
G37*
G36*
X93097D02*
X92876Y222526D01*
X92681Y222236D01*
X92512Y221932D01*
X92369Y221614D01*
X92252Y221282D01*
X92161Y220936D01*
X92096Y220575D01*
X92057Y220201D01*
X92044Y219813D01*
X89044D01*
X89031Y220201D01*
X88992Y220575D01*
X88927Y220936D01*
X88836Y221282D01*
X88719Y221614D01*
X88576Y221932D01*
X88407Y222236D01*
X88212Y222526D01*
X87991Y222802D01*
X87744Y223064D01*
X93344D01*
X93097Y222802D01*
D02*
G37*
G36*
X83097D02*
X82876Y222526D01*
X82681Y222236D01*
X82512Y221932D01*
X82369Y221614D01*
X82252Y221282D01*
X82161Y220936D01*
X82096Y220575D01*
X82057Y220201D01*
X82044Y219813D01*
X79044D01*
X79031Y220201D01*
X78992Y220575D01*
X78927Y220936D01*
X78836Y221282D01*
X78719Y221614D01*
X78576Y221932D01*
X78407Y222236D01*
X78212Y222526D01*
X77991Y222802D01*
X77744Y223064D01*
X83344D01*
X83097Y222802D01*
D02*
G37*
G36*
X192057Y204815D02*
X192156Y203855D01*
X192242Y203465D01*
X192354Y203135D01*
X192490Y202865D01*
X192651Y202655D01*
X192836Y202505D01*
X193047Y202415D01*
X193282Y202385D01*
X187806D01*
X188041Y202415D01*
X188252Y202505D01*
X188438Y202655D01*
X188599Y202865D01*
X188735Y203135D01*
X188846Y203465D01*
X188933Y203855D01*
X188995Y204305D01*
X189032Y204815D01*
X189044Y205385D01*
X192044D01*
X192057Y204815D01*
D02*
G37*
G36*
X182057D02*
X182156Y203855D01*
X182242Y203465D01*
X182354Y203135D01*
X182490Y202865D01*
X182651Y202655D01*
X182836Y202505D01*
X183047Y202415D01*
X183282Y202385D01*
X177806D01*
X178041Y202415D01*
X178252Y202505D01*
X178438Y202655D01*
X178598Y202865D01*
X178735Y203135D01*
X178846Y203465D01*
X178933Y203855D01*
X178995Y204305D01*
X179032Y204815D01*
X179044Y205385D01*
X182044D01*
X182057Y204815D01*
D02*
G37*
G36*
X172057D02*
X172156Y203855D01*
X172242Y203465D01*
X172354Y203135D01*
X172490Y202865D01*
X172651Y202655D01*
X172836Y202505D01*
X173047Y202415D01*
X173282Y202385D01*
X167806D01*
X168041Y202415D01*
X168252Y202505D01*
X168438Y202655D01*
X168598Y202865D01*
X168735Y203135D01*
X168846Y203465D01*
X168933Y203855D01*
X168995Y204305D01*
X169032Y204815D01*
X169044Y205385D01*
X172044D01*
X172057Y204815D01*
D02*
G37*
G36*
X162057D02*
X162156Y203855D01*
X162242Y203465D01*
X162354Y203135D01*
X162490Y202865D01*
X162651Y202655D01*
X162837Y202505D01*
X163047Y202415D01*
X163282Y202385D01*
X157806D01*
X158041Y202415D01*
X158252Y202505D01*
X158438Y202655D01*
X158598Y202865D01*
X158735Y203135D01*
X158846Y203465D01*
X158933Y203855D01*
X158995Y204305D01*
X159032Y204815D01*
X159044Y205385D01*
X162044D01*
X162057Y204815D01*
D02*
G37*
G36*
X112057Y204315D02*
X112156Y203355D01*
X112242Y202965D01*
X112354Y202635D01*
X112490Y202365D01*
X112651Y202155D01*
X112837Y202005D01*
X113047Y201915D01*
X113282Y201885D01*
X107806D01*
X108041Y201915D01*
X108252Y202005D01*
X108438Y202155D01*
X108598Y202365D01*
X108735Y202635D01*
X108846Y202965D01*
X108933Y203355D01*
X108995Y203805D01*
X109032Y204315D01*
X109044Y204885D01*
X112044D01*
X112057Y204315D01*
D02*
G37*
G36*
X102057D02*
X102156Y203355D01*
X102242Y202965D01*
X102354Y202635D01*
X102490Y202365D01*
X102651Y202155D01*
X102837Y202005D01*
X103047Y201915D01*
X103282Y201885D01*
X97806D01*
X98041Y201915D01*
X98252Y202005D01*
X98438Y202155D01*
X98598Y202365D01*
X98735Y202635D01*
X98846Y202965D01*
X98933Y203355D01*
X98995Y203805D01*
X99032Y204315D01*
X99044Y204885D01*
X102044D01*
X102057Y204315D01*
D02*
G37*
G36*
X92057D02*
X92156Y203355D01*
X92242Y202965D01*
X92354Y202635D01*
X92490Y202365D01*
X92651Y202155D01*
X92836Y202005D01*
X93047Y201915D01*
X93282Y201885D01*
X87806D01*
X88041Y201915D01*
X88252Y202005D01*
X88438Y202155D01*
X88599Y202365D01*
X88735Y202635D01*
X88846Y202965D01*
X88933Y203355D01*
X88995Y203805D01*
X89032Y204315D01*
X89044Y204885D01*
X92044D01*
X92057Y204315D01*
D02*
G37*
G36*
X193047Y189379D02*
X192836Y189289D01*
X192651Y189139D01*
X192490Y188929D01*
X192354Y188659D01*
X192242Y188329D01*
X192156Y187939D01*
X192094Y187489D01*
X192057Y186979D01*
X192044Y186409D01*
X189044D01*
X189032Y186979D01*
X188933Y187939D01*
X188846Y188329D01*
X188735Y188659D01*
X188599Y188929D01*
X188438Y189139D01*
X188252Y189289D01*
X188041Y189379D01*
X187806Y189409D01*
X193282D01*
X193047Y189379D01*
D02*
G37*
G36*
X183047D02*
X182836Y189289D01*
X182651Y189139D01*
X182490Y188929D01*
X182354Y188659D01*
X182242Y188329D01*
X182156Y187939D01*
X182094Y187489D01*
X182057Y186979D01*
X182044Y186409D01*
X179044D01*
X179032Y186979D01*
X178933Y187939D01*
X178846Y188329D01*
X178735Y188659D01*
X178598Y188929D01*
X178438Y189139D01*
X178252Y189289D01*
X178041Y189379D01*
X177806Y189409D01*
X183282D01*
X183047Y189379D01*
D02*
G37*
G36*
X173047D02*
X172836Y189289D01*
X172651Y189139D01*
X172490Y188929D01*
X172354Y188659D01*
X172242Y188329D01*
X172156Y187939D01*
X172094Y187489D01*
X172057Y186979D01*
X172044Y186409D01*
X169044D01*
X169032Y186979D01*
X168933Y187939D01*
X168846Y188329D01*
X168735Y188659D01*
X168598Y188929D01*
X168438Y189139D01*
X168252Y189289D01*
X168041Y189379D01*
X167806Y189409D01*
X173282D01*
X173047Y189379D01*
D02*
G37*
G36*
X163047D02*
X162837Y189289D01*
X162651Y189139D01*
X162490Y188929D01*
X162354Y188659D01*
X162242Y188329D01*
X162156Y187939D01*
X162094Y187489D01*
X162057Y186979D01*
X162044Y186409D01*
X159044D01*
X159032Y186979D01*
X158933Y187939D01*
X158846Y188329D01*
X158735Y188659D01*
X158598Y188929D01*
X158438Y189139D01*
X158252Y189289D01*
X158041Y189379D01*
X157806Y189409D01*
X163282D01*
X163047Y189379D01*
D02*
G37*
G36*
X113047Y188879D02*
X112837Y188789D01*
X112651Y188639D01*
X112490Y188429D01*
X112354Y188159D01*
X112242Y187829D01*
X112156Y187439D01*
X112094Y186989D01*
X112057Y186479D01*
X112044Y185909D01*
X109044D01*
X109032Y186479D01*
X108933Y187439D01*
X108846Y187829D01*
X108735Y188159D01*
X108598Y188429D01*
X108438Y188639D01*
X108252Y188789D01*
X108041Y188879D01*
X107806Y188909D01*
X113282D01*
X113047Y188879D01*
D02*
G37*
G36*
X103047D02*
X102837Y188789D01*
X102651Y188639D01*
X102490Y188429D01*
X102354Y188159D01*
X102242Y187829D01*
X102156Y187439D01*
X102094Y186989D01*
X102057Y186479D01*
X102044Y185909D01*
X99044D01*
X99032Y186479D01*
X98933Y187439D01*
X98846Y187829D01*
X98735Y188159D01*
X98598Y188429D01*
X98438Y188639D01*
X98252Y188789D01*
X98041Y188879D01*
X97806Y188909D01*
X103282D01*
X103047Y188879D01*
D02*
G37*
G36*
X93047D02*
X92836Y188789D01*
X92651Y188639D01*
X92490Y188429D01*
X92354Y188159D01*
X92242Y187829D01*
X92156Y187439D01*
X92094Y186989D01*
X92057Y186479D01*
X92044Y185909D01*
X89044D01*
X89032Y186479D01*
X88933Y187439D01*
X88846Y187829D01*
X88735Y188159D01*
X88599Y188429D01*
X88438Y188639D01*
X88252Y188789D01*
X88041Y188879D01*
X87806Y188909D01*
X93282D01*
X93047Y188879D01*
D02*
G37*
G36*
X22143Y188450D02*
X22419Y188229D01*
X22709Y188034D01*
X23013Y187865D01*
X23331Y187722D01*
X23663Y187605D01*
X24010Y187514D01*
X24370Y187449D01*
X24744Y187410D01*
X25133Y187397D01*
Y184397D01*
X24744Y184384D01*
X24370Y184345D01*
X24010Y184280D01*
X23663Y184189D01*
X23331Y184072D01*
X23013Y183929D01*
X22709Y183760D01*
X22419Y183565D01*
X22143Y183344D01*
X21881Y183097D01*
Y188697D01*
X22143Y188450D01*
D02*
G37*
G36*
Y139450D02*
X22419Y139229D01*
X22709Y139034D01*
X23013Y138865D01*
X23331Y138722D01*
X23663Y138605D01*
X24010Y138514D01*
X24370Y138449D01*
X24744Y138410D01*
X25133Y138397D01*
Y135397D01*
X24744Y135384D01*
X24370Y135345D01*
X24010Y135280D01*
X23663Y135189D01*
X23331Y135072D01*
X23013Y134929D01*
X22709Y134760D01*
X22419Y134565D01*
X22143Y134344D01*
X21881Y134097D01*
Y139697D01*
X22143Y139450D01*
D02*
G37*
G36*
X12565Y137377D02*
X12761Y136017D01*
X13087Y134817D01*
X13544Y133777D01*
X14131Y132897D01*
X14849Y132177D01*
X15697Y131617D01*
X16676Y131217D01*
X17785Y130977D01*
X19025Y130897D01*
Y122897D01*
X17785Y122817D01*
X16676Y122577D01*
X15697Y122177D01*
X14849Y121617D01*
X14131Y120897D01*
X13544Y120017D01*
X13087Y118977D01*
X12761Y117777D01*
X12565Y116417D01*
X12500Y114897D01*
X4500Y126897D01*
X12500Y138897D01*
X12565Y137377D01*
D02*
G37*
G36*
X169530Y90472D02*
X169579Y89892D01*
X169621Y89634D01*
X169675Y89398D01*
X169740Y89183D01*
X169818Y88990D01*
X169908Y88818D01*
X170010Y88668D01*
X170124Y88539D01*
X165925D01*
X166039Y88668D01*
X166140Y88818D01*
X166230Y88990D01*
X166308Y89183D01*
X166375Y89398D01*
X166428Y89634D01*
X166471Y89892D01*
X166500Y90171D01*
X166525Y90795D01*
X169525D01*
X169530Y90472D01*
D02*
G37*
G36*
X159530D02*
X159579Y89892D01*
X159620Y89634D01*
X159675Y89398D01*
X159740Y89183D01*
X159818Y88990D01*
X159908Y88818D01*
X160011Y88668D01*
X160125Y88539D01*
X155924D01*
X156038Y88668D01*
X156140Y88818D01*
X156230Y88990D01*
X156308Y89183D01*
X156375Y89398D01*
X156429Y89634D01*
X156471Y89892D01*
X156500Y90171D01*
X156525Y90795D01*
X159525D01*
X159530Y90472D01*
D02*
G37*
G36*
X149530D02*
X149578Y89892D01*
X149620Y89634D01*
X149674Y89398D01*
X149741Y89183D01*
X149819Y88990D01*
X149908Y88818D01*
X150011Y88668D01*
X150125Y88539D01*
X145924D01*
X146038Y88668D01*
X146141Y88818D01*
X146230Y88990D01*
X146309Y89183D01*
X146374Y89398D01*
X146429Y89634D01*
X146470Y89892D01*
X146501Y90171D01*
X146525Y90795D01*
X149524D01*
X149530Y90472D01*
D02*
G37*
G36*
X139531D02*
X139578Y89892D01*
X139620Y89634D01*
X139674Y89398D01*
X139741Y89183D01*
X139819Y88990D01*
X139909Y88818D01*
X140010Y88668D01*
X140124Y88539D01*
X135924D01*
X136038Y88668D01*
X136141Y88818D01*
X136231Y88990D01*
X136309Y89183D01*
X136374Y89398D01*
X136428Y89634D01*
X136470Y89892D01*
X136501Y90171D01*
X136524Y90795D01*
X139524D01*
X139531Y90472D01*
D02*
G37*
G36*
X129531D02*
X129578Y89892D01*
X129621Y89634D01*
X129674Y89398D01*
X129741Y89183D01*
X129818Y88990D01*
X129909Y88818D01*
X130010Y88668D01*
X130124Y88539D01*
X125925D01*
X126039Y88668D01*
X126140Y88818D01*
X126231Y88990D01*
X126309Y89183D01*
X126374Y89398D01*
X126428Y89634D01*
X126470Y89892D01*
X126500Y90171D01*
X126524Y90795D01*
X129525D01*
X129531Y90472D01*
D02*
G37*
G36*
X119530D02*
X119579Y89892D01*
X119621Y89634D01*
X119675Y89398D01*
X119740Y89183D01*
X119818Y88990D01*
X119908Y88818D01*
X120010Y88668D01*
X120124Y88539D01*
X115925D01*
X116039Y88668D01*
X116140Y88818D01*
X116230Y88990D01*
X116308Y89183D01*
X116375Y89398D01*
X116428Y89634D01*
X116471Y89892D01*
X116500Y90171D01*
X116525Y90795D01*
X119525D01*
X119530Y90472D01*
D02*
G37*
G36*
X109530D02*
X109579Y89892D01*
X109620Y89634D01*
X109675Y89398D01*
X109740Y89183D01*
X109818Y88990D01*
X109908Y88818D01*
X110011Y88668D01*
X110125Y88539D01*
X105924D01*
X106038Y88668D01*
X106140Y88818D01*
X106230Y88990D01*
X106308Y89183D01*
X106375Y89398D01*
X106429Y89634D01*
X106471Y89892D01*
X106500Y90171D01*
X106525Y90795D01*
X109525D01*
X109530Y90472D01*
D02*
G37*
G36*
X170010Y74126D02*
X169908Y73976D01*
X169818Y73805D01*
X169740Y73611D01*
X169675Y73397D01*
X169621Y73160D01*
X169579Y72902D01*
X169548Y72623D01*
X169525Y71999D01*
X166525D01*
X166518Y72322D01*
X166471Y72902D01*
X166428Y73160D01*
X166375Y73397D01*
X166308Y73611D01*
X166230Y73805D01*
X166140Y73976D01*
X166039Y74126D01*
X165925Y74255D01*
X170124D01*
X170010Y74126D01*
D02*
G37*
G36*
X160011D02*
X159908Y73976D01*
X159818Y73805D01*
X159740Y73611D01*
X159675Y73397D01*
X159620Y73160D01*
X159579Y72902D01*
X159548Y72623D01*
X159525Y71999D01*
X156525D01*
X156518Y72322D01*
X156471Y72902D01*
X156429Y73160D01*
X156375Y73397D01*
X156308Y73611D01*
X156230Y73805D01*
X156140Y73976D01*
X156038Y74126D01*
X155924Y74255D01*
X160125D01*
X160011Y74126D01*
D02*
G37*
G36*
X150011D02*
X149908Y73976D01*
X149819Y73805D01*
X149741Y73611D01*
X149674Y73397D01*
X149620Y73160D01*
X149578Y72902D01*
X149548Y72623D01*
X149524Y71999D01*
X146525D01*
X146519Y72322D01*
X146470Y72902D01*
X146429Y73160D01*
X146374Y73397D01*
X146309Y73611D01*
X146230Y73805D01*
X146141Y73976D01*
X146038Y74126D01*
X145924Y74255D01*
X150125D01*
X150011Y74126D01*
D02*
G37*
G36*
X140010D02*
X139909Y73976D01*
X139819Y73805D01*
X139741Y73611D01*
X139674Y73397D01*
X139620Y73160D01*
X139578Y72902D01*
X139549Y72623D01*
X139524Y71999D01*
X136524D01*
X136519Y72322D01*
X136470Y72902D01*
X136428Y73160D01*
X136374Y73397D01*
X136309Y73611D01*
X136231Y73805D01*
X136141Y73976D01*
X136038Y74126D01*
X135924Y74255D01*
X140124D01*
X140010Y74126D01*
D02*
G37*
G36*
X328034Y48565D02*
X328113Y47605D01*
X328183Y47215D01*
X328272Y46885D01*
X328380Y46615D01*
X328509Y46405D01*
X328657Y46255D01*
X328825Y46165D01*
X329012Y46135D01*
X324037D01*
X324224Y46165D01*
X324392Y46255D01*
X324540Y46405D01*
X324669Y46615D01*
X324778Y46885D01*
X324866Y47215D01*
X324936Y47605D01*
X324985Y48055D01*
X325025Y49135D01*
X328025D01*
X328034Y48565D01*
D02*
G37*
G36*
X229534D02*
X229613Y47605D01*
X229683Y47215D01*
X229771Y46885D01*
X229880Y46615D01*
X230009Y46405D01*
X230157Y46255D01*
X230325Y46165D01*
X230512Y46135D01*
X225536D01*
X225724Y46165D01*
X225892Y46255D01*
X226040Y46405D01*
X226169Y46615D01*
X226277Y46885D01*
X226366Y47215D01*
X226436Y47605D01*
X226485Y48055D01*
X226524Y49135D01*
X229524D01*
X229534Y48565D01*
D02*
G37*
G36*
X54034D02*
X54113Y47605D01*
X54183Y47215D01*
X54272Y46885D01*
X54380Y46615D01*
X54509Y46405D01*
X54657Y46255D01*
X54825Y46165D01*
X55013Y46135D01*
X50037D01*
X50224Y46165D01*
X50392Y46255D01*
X50540Y46405D01*
X50669Y46615D01*
X50778Y46885D01*
X50866Y47215D01*
X50936Y47605D01*
X50985Y48055D01*
X51025Y49135D01*
X54024D01*
X54034Y48565D01*
D02*
G37*
G36*
X316037Y45928D02*
X316712Y45907D01*
X318513Y45897D01*
Y40897D01*
X316037Y40779D01*
Y40659D01*
X315986Y40704D01*
X315837Y40745D01*
X315705Y40763D01*
X313512Y40659D01*
X313325Y40629D01*
X313157Y40539D01*
X313009Y40389D01*
X312880Y40179D01*
X312772Y39909D01*
X312683Y39579D01*
X312613Y39189D01*
X312564Y38739D01*
X312560Y38622D01*
X312527Y37341D01*
X312526Y36780D01*
X312653Y36663D01*
X312975Y36409D01*
X313313Y36183D01*
X313669Y35986D01*
X314041Y35817D01*
X314430Y35676D01*
X314836Y35563D01*
X315259Y35479D01*
X315699Y35423D01*
X316156Y35395D01*
X311530Y31119D01*
X311536Y31569D01*
X311510Y32003D01*
X311452Y32421D01*
X311362Y32824D01*
X311239Y33211D01*
X311083Y33583D01*
X310895Y33939D01*
X310676Y34279D01*
X310423Y34603D01*
X310138Y34912D01*
X311753Y36397D01*
X309524D01*
X309522Y37341D01*
X309408Y39347D01*
X309366Y39579D01*
X309278Y39909D01*
X309169Y40179D01*
X309040Y40389D01*
X308892Y40539D01*
X308724Y40629D01*
X308537Y40659D01*
X309333D01*
X309282Y41553D01*
X309226Y41661D01*
X311036D01*
Y45897D01*
X313512Y46015D01*
Y46135D01*
X313562Y46090D01*
X313713Y46049D01*
X313843Y46031D01*
X316037Y46135D01*
Y45928D01*
D02*
G37*
G36*
X217536Y45912D02*
X217712Y45907D01*
X219513Y45897D01*
Y40897D01*
X217536Y40803D01*
Y40659D01*
X217487Y40704D01*
X217337Y40745D01*
X217087Y40780D01*
X217078Y40781D01*
X214512Y40659D01*
X214325Y40629D01*
X214157Y40539D01*
X214009Y40389D01*
X213880Y40179D01*
X213772Y39909D01*
X213683Y39579D01*
X213613Y39189D01*
X213564Y38739D01*
X213560Y38622D01*
X213527Y37341D01*
X213526Y36780D01*
X213653Y36663D01*
X213974Y36409D01*
X214313Y36183D01*
X214669Y35986D01*
X215041Y35817D01*
X215430Y35676D01*
X215836Y35563D01*
X216259Y35479D01*
X216699Y35423D01*
X217156Y35395D01*
X212530Y31119D01*
X212536Y31569D01*
X212510Y32003D01*
X212452Y32421D01*
X212362Y32824D01*
X212239Y33211D01*
X212083Y33583D01*
X211895Y33939D01*
X211676Y34279D01*
X211423Y34603D01*
X211138Y34912D01*
X212753Y36397D01*
X210525D01*
X210522Y37341D01*
X210408Y39347D01*
X210366Y39579D01*
X210278Y39909D01*
X210169Y40179D01*
X210040Y40389D01*
X209892Y40539D01*
X209724Y40629D01*
X209537Y40659D01*
X210333D01*
X210282Y41553D01*
X210226Y41661D01*
X212537D01*
Y45897D01*
X214512Y45991D01*
Y46135D01*
X214563Y46090D01*
X214713Y46049D01*
X214963Y46014D01*
X214971Y46013D01*
X217536Y46135D01*
Y45912D01*
D02*
G37*
G36*
X123537D02*
X123713Y45907D01*
X125513Y45897D01*
Y40897D01*
X123537Y40803D01*
Y40659D01*
X123486Y40704D01*
X123337Y40745D01*
X123087Y40780D01*
X123078Y40781D01*
X120512Y40659D01*
X120325Y40629D01*
X120157Y40539D01*
X120009Y40389D01*
X119880Y40179D01*
X119772Y39909D01*
X119683Y39579D01*
X119613Y39189D01*
X119566Y38761D01*
X119527Y36543D01*
X119828Y36299D01*
X120167Y36067D01*
X120514Y35868D01*
X120870Y35703D01*
X121234Y35572D01*
X121606Y35476D01*
X121987Y35413D01*
X122376Y35385D01*
X122774Y35390D01*
X118532Y31148D01*
X118537Y31545D01*
X118508Y31935D01*
X118446Y32315D01*
X118349Y32688D01*
X118218Y33052D01*
X118054Y33407D01*
X117855Y33754D01*
X117622Y34093D01*
X117356Y34424D01*
X117055Y34746D01*
X118706Y36397D01*
X116525D01*
X116360Y39604D01*
X116278Y39909D01*
X116169Y40179D01*
X116040Y40389D01*
X115892Y40539D01*
X115724Y40629D01*
X115536Y40659D01*
X116305D01*
X116256Y41630D01*
X118536D01*
Y45897D01*
X120512Y45991D01*
Y46135D01*
X120563Y46090D01*
X120712Y46049D01*
X120963Y46014D01*
X120971Y46013D01*
X123537Y46135D01*
Y45912D01*
D02*
G37*
G36*
X42037D02*
X42213Y45907D01*
X44012Y45897D01*
Y40897D01*
X42037Y40803D01*
Y40659D01*
X41987Y40704D01*
X41837Y40745D01*
X41587Y40780D01*
X41578Y40781D01*
X39013Y40659D01*
X38825Y40629D01*
X38657Y40539D01*
X38509Y40389D01*
X38380Y40179D01*
X38271Y39909D01*
X38183Y39579D01*
X38113Y39189D01*
X38064Y38739D01*
X38060Y38622D01*
X38028Y37341D01*
X38026Y36780D01*
X38153Y36663D01*
X38475Y36409D01*
X38813Y36183D01*
X39169Y35986D01*
X39541Y35817D01*
X39930Y35676D01*
X40336Y35563D01*
X40759Y35479D01*
X41199Y35423D01*
X41656Y35395D01*
X37030Y31119D01*
X37036Y31569D01*
X37010Y32003D01*
X36952Y32421D01*
X36862Y32824D01*
X36738Y33211D01*
X36583Y33583D01*
X36395Y33939D01*
X36176Y34279D01*
X35923Y34603D01*
X35638Y34912D01*
X37253Y36397D01*
X35024D01*
X35021Y37341D01*
X34908Y39347D01*
X34866Y39579D01*
X34778Y39909D01*
X34669Y40179D01*
X34540Y40389D01*
X34392Y40539D01*
X34224Y40629D01*
X34036Y40659D01*
X34833D01*
X34782Y41553D01*
X34726Y41661D01*
X37036D01*
Y45897D01*
X39013Y45991D01*
Y46135D01*
X39062Y46090D01*
X39213Y46049D01*
X39463Y46014D01*
X39471Y46013D01*
X42037Y46135D01*
Y45912D01*
D02*
G37*
G36*
X136542Y45900D02*
X136633Y45689D01*
X136783Y45504D01*
X136993Y45343D01*
X137262Y45206D01*
X137592Y45095D01*
X137982Y45009D01*
X138433Y44947D01*
X138943Y44909D01*
X139513Y44897D01*
Y41897D01*
X138943Y41885D01*
X137982Y41786D01*
X137592Y41699D01*
X137262Y41587D01*
X136993Y41451D01*
X136783Y41290D01*
X136633Y41105D01*
X136542Y40894D01*
X136512Y40659D01*
Y46135D01*
X136542Y45900D01*
D02*
G37*
G36*
X305325Y40629D02*
X305157Y40539D01*
X305009Y40389D01*
X304880Y40179D01*
X304771Y39909D01*
X304683Y39579D01*
X304613Y39189D01*
X304564Y38739D01*
X304524Y37659D01*
X301524D01*
X301515Y38229D01*
X301436Y39189D01*
X301366Y39579D01*
X301277Y39909D01*
X301169Y40179D01*
X301040Y40389D01*
X300892Y40539D01*
X300724Y40629D01*
X300536Y40659D01*
X305512D01*
X305325Y40629D01*
D02*
G37*
G36*
X206325D02*
X206157Y40539D01*
X206009Y40389D01*
X205880Y40179D01*
X205771Y39909D01*
X205683Y39579D01*
X205613Y39189D01*
X205564Y38739D01*
X205524Y37659D01*
X202524D01*
X202515Y38229D01*
X202436Y39189D01*
X202366Y39579D01*
X202277Y39909D01*
X202169Y40179D01*
X202040Y40389D01*
X201892Y40539D01*
X201724Y40629D01*
X201536Y40659D01*
X206512D01*
X206325Y40629D01*
D02*
G37*
G36*
X112325D02*
X112157Y40539D01*
X112009Y40389D01*
X111880Y40179D01*
X111772Y39909D01*
X111683Y39579D01*
X111613Y39189D01*
X111564Y38739D01*
X111524Y37659D01*
X108525D01*
X108515Y38229D01*
X108436Y39189D01*
X108366Y39579D01*
X108277Y39909D01*
X108169Y40179D01*
X108040Y40389D01*
X107892Y40539D01*
X107724Y40629D01*
X107536Y40659D01*
X112513D01*
X112325Y40629D01*
D02*
G37*
G36*
X30825D02*
X30657Y40539D01*
X30509Y40389D01*
X30380Y40179D01*
X30272Y39909D01*
X30183Y39579D01*
X30113Y39189D01*
X30064Y38739D01*
X30024Y37659D01*
X27024D01*
X27015Y38229D01*
X26936Y39189D01*
X26866Y39579D01*
X26777Y39909D01*
X26669Y40179D01*
X26540Y40389D01*
X26392Y40539D01*
X26224Y40629D01*
X26037Y40659D01*
X31012D01*
X30825Y40629D01*
D02*
G37*
G36*
X303994Y34746D02*
X303694Y34424D01*
X303427Y34093D01*
X303194Y33754D01*
X302995Y33407D01*
X302831Y33052D01*
X302700Y32688D01*
X302603Y32315D01*
X302541Y31935D01*
X302512Y31545D01*
X302518Y31148D01*
X298275Y35390D01*
X298673Y35385D01*
X299062Y35413D01*
X299443Y35476D01*
X299815Y35572D01*
X300179Y35703D01*
X300535Y35868D01*
X300882Y36067D01*
X301221Y36299D01*
X301551Y36566D01*
X301873Y36867D01*
X303994Y34746D01*
D02*
G37*
G36*
X204994D02*
X204694Y34424D01*
X204427Y34093D01*
X204194Y33754D01*
X203995Y33407D01*
X203831Y33052D01*
X203700Y32688D01*
X203603Y32315D01*
X203541Y31935D01*
X203512Y31545D01*
X203518Y31148D01*
X199276Y35390D01*
X199673Y35385D01*
X200062Y35413D01*
X200443Y35476D01*
X200815Y35572D01*
X201179Y35703D01*
X201535Y35868D01*
X201882Y36067D01*
X202221Y36299D01*
X202551Y36566D01*
X202873Y36867D01*
X204994Y34746D01*
D02*
G37*
G36*
X110994D02*
X110694Y34424D01*
X110427Y34093D01*
X110194Y33754D01*
X109995Y33407D01*
X109831Y33052D01*
X109700Y32688D01*
X109603Y32315D01*
X109541Y31935D01*
X109512Y31545D01*
X109518Y31148D01*
X105275Y35390D01*
X105673Y35385D01*
X106062Y35413D01*
X106443Y35476D01*
X106815Y35572D01*
X107179Y35703D01*
X107535Y35868D01*
X107882Y36067D01*
X108221Y36299D01*
X108551Y36566D01*
X108873Y36867D01*
X110994Y34746D01*
D02*
G37*
G36*
X29494D02*
X29194Y34424D01*
X28927Y34093D01*
X28694Y33754D01*
X28495Y33407D01*
X28331Y33052D01*
X28200Y32688D01*
X28103Y32315D01*
X28041Y31935D01*
X28012Y31545D01*
X28018Y31148D01*
X23776Y35390D01*
X24173Y35385D01*
X24562Y35413D01*
X24943Y35476D01*
X25315Y35572D01*
X25679Y35703D01*
X26035Y35868D01*
X26382Y36067D01*
X26721Y36299D01*
X27051Y36566D01*
X27373Y36867D01*
X29494Y34746D01*
D02*
G37*
G36*
X318861Y27355D02*
X318581Y27017D01*
X318333Y26669D01*
X318119Y26310D01*
X317937Y25943D01*
X317789Y25565D01*
X317673Y25177D01*
X317590Y24779D01*
X317541Y24372D01*
X317525Y23954D01*
X314525D01*
X314508Y24372D01*
X314458Y24779D01*
X314376Y25177D01*
X314261Y25565D01*
X314112Y25943D01*
X313931Y26310D01*
X313716Y26669D01*
X313469Y27017D01*
X313188Y27355D01*
X312875Y27683D01*
X319175D01*
X318861Y27355D01*
D02*
G37*
G36*
X300861D02*
X300581Y27017D01*
X300333Y26669D01*
X300118Y26310D01*
X299937Y25943D01*
X299788Y25565D01*
X299673Y25177D01*
X299590Y24779D01*
X299541Y24372D01*
X299524Y23954D01*
X296525D01*
X296508Y24372D01*
X296459Y24779D01*
X296376Y25177D01*
X296260Y25565D01*
X296112Y25943D01*
X295931Y26310D01*
X295716Y26669D01*
X295468Y27017D01*
X295188Y27355D01*
X294875Y27683D01*
X301174D01*
X300861Y27355D01*
D02*
G37*
G36*
X219861D02*
X219581Y27017D01*
X219333Y26669D01*
X219118Y26310D01*
X218937Y25943D01*
X218789Y25565D01*
X218673Y25177D01*
X218590Y24779D01*
X218541Y24372D01*
X218525Y23954D01*
X215525D01*
X215508Y24372D01*
X215458Y24779D01*
X215376Y25177D01*
X215261Y25565D01*
X215112Y25943D01*
X214931Y26310D01*
X214716Y26669D01*
X214469Y27017D01*
X214188Y27355D01*
X213875Y27683D01*
X220175D01*
X219861Y27355D01*
D02*
G37*
G36*
X201861D02*
X201581Y27017D01*
X201333Y26669D01*
X201118Y26310D01*
X200937Y25943D01*
X200788Y25565D01*
X200673Y25177D01*
X200590Y24779D01*
X200541Y24372D01*
X200524Y23954D01*
X197524D01*
X197508Y24372D01*
X197459Y24779D01*
X197376Y25177D01*
X197260Y25565D01*
X197112Y25943D01*
X196931Y26310D01*
X196716Y26669D01*
X196468Y27017D01*
X196188Y27355D01*
X195875Y27683D01*
X202174D01*
X201861Y27355D01*
D02*
G37*
G36*
X125861D02*
X125581Y27017D01*
X125333Y26669D01*
X125119Y26310D01*
X124937Y25943D01*
X124788Y25565D01*
X124673Y25177D01*
X124591Y24779D01*
X124541Y24372D01*
X124524Y23954D01*
X121525D01*
X121508Y24372D01*
X121458Y24779D01*
X121376Y25177D01*
X121260Y25565D01*
X121112Y25943D01*
X120931Y26310D01*
X120716Y26669D01*
X120468Y27017D01*
X120188Y27355D01*
X119875Y27683D01*
X126174D01*
X125861Y27355D01*
D02*
G37*
G36*
X107861D02*
X107580Y27017D01*
X107333Y26669D01*
X107118Y26310D01*
X106937Y25943D01*
X106789Y25565D01*
X106673Y25177D01*
X106590Y24779D01*
X106541Y24372D01*
X106525Y23954D01*
X103524D01*
X103508Y24372D01*
X103458Y24779D01*
X103376Y25177D01*
X103261Y25565D01*
X103112Y25943D01*
X102930Y26310D01*
X102716Y26669D01*
X102469Y27017D01*
X102188Y27355D01*
X101874Y27683D01*
X108175D01*
X107861Y27355D01*
D02*
G37*
G36*
X44361D02*
X44080Y27017D01*
X43833Y26669D01*
X43619Y26310D01*
X43437Y25943D01*
X43288Y25565D01*
X43173Y25177D01*
X43091Y24779D01*
X43041Y24372D01*
X43025Y23954D01*
X40025D01*
X40008Y24372D01*
X39959Y24779D01*
X39876Y25177D01*
X39761Y25565D01*
X39612Y25943D01*
X39430Y26310D01*
X39216Y26669D01*
X38969Y27017D01*
X38688Y27355D01*
X38375Y27683D01*
X44675D01*
X44361Y27355D01*
D02*
G37*
G36*
X26361D02*
X26081Y27017D01*
X25833Y26669D01*
X25618Y26310D01*
X25437Y25943D01*
X25289Y25565D01*
X25173Y25177D01*
X25091Y24779D01*
X25041Y24372D01*
X25025Y23954D01*
X22025D01*
X22008Y24372D01*
X21959Y24779D01*
X21876Y25177D01*
X21760Y25565D01*
X21612Y25943D01*
X21430Y26310D01*
X21216Y26669D01*
X20968Y27017D01*
X20688Y27355D01*
X20374Y27683D01*
X26675D01*
X26361Y27355D01*
D02*
G37*
G36*
X299541Y11422D02*
X299590Y11015D01*
X299673Y10617D01*
X299788Y10229D01*
X299937Y9852D01*
X300118Y9484D01*
X300333Y9126D01*
X300581Y8777D01*
X300861Y8439D01*
X301174Y8111D01*
X294875D01*
X295188Y8439D01*
X295468Y8777D01*
X295716Y9126D01*
X295931Y9484D01*
X296112Y9852D01*
X296260Y10229D01*
X296376Y10617D01*
X296459Y11015D01*
X296508Y11422D01*
X296525Y11840D01*
X299524D01*
X299541Y11422D01*
D02*
G37*
G36*
X200541D02*
X200590Y11015D01*
X200673Y10617D01*
X200788Y10229D01*
X200937Y9852D01*
X201118Y9484D01*
X201333Y9126D01*
X201581Y8777D01*
X201861Y8439D01*
X202174Y8111D01*
X195875D01*
X196188Y8439D01*
X196468Y8777D01*
X196716Y9126D01*
X196931Y9484D01*
X197112Y9852D01*
X197260Y10229D01*
X197376Y10617D01*
X197459Y11015D01*
X197508Y11422D01*
X197524Y11840D01*
X200524D01*
X200541Y11422D01*
D02*
G37*
G36*
X106541D02*
X106590Y11015D01*
X106673Y10617D01*
X106789Y10229D01*
X106937Y9852D01*
X107118Y9484D01*
X107333Y9126D01*
X107580Y8777D01*
X107861Y8439D01*
X108175Y8111D01*
X101874D01*
X102188Y8439D01*
X102469Y8777D01*
X102716Y9126D01*
X102930Y9484D01*
X103112Y9852D01*
X103261Y10229D01*
X103376Y10617D01*
X103458Y11015D01*
X103508Y11422D01*
X103524Y11840D01*
X106525D01*
X106541Y11422D01*
D02*
G37*
G36*
X25041D02*
X25091Y11015D01*
X25173Y10617D01*
X25289Y10229D01*
X25437Y9852D01*
X25618Y9484D01*
X25833Y9126D01*
X26081Y8777D01*
X26361Y8439D01*
X26675Y8111D01*
X20374D01*
X20688Y8439D01*
X20968Y8777D01*
X21216Y9126D01*
X21430Y9484D01*
X21612Y9852D01*
X21760Y10229D01*
X21876Y10617D01*
X21959Y11015D01*
X22008Y11422D01*
X22025Y11840D01*
X25025D01*
X25041Y11422D01*
D02*
G37*
G36*
X317537Y10617D02*
X317577Y10242D01*
X317641Y9882D01*
X317733Y9536D01*
X317849Y9204D01*
X317992Y8885D01*
X318162Y8581D01*
X318356Y8291D01*
X318578Y8016D01*
X318825Y7754D01*
X313225D01*
X313472Y8016D01*
X313692Y8291D01*
X313888Y8581D01*
X314056Y8885D01*
X314199Y9204D01*
X314317Y9536D01*
X314407Y9882D01*
X314473Y10242D01*
X314511Y10617D01*
X314525Y11005D01*
X317525D01*
X317537Y10617D01*
D02*
G37*
G36*
X218537D02*
X218577Y10242D01*
X218641Y9882D01*
X218733Y9536D01*
X218849Y9204D01*
X218992Y8885D01*
X219162Y8581D01*
X219356Y8291D01*
X219578Y8016D01*
X219825Y7754D01*
X214225D01*
X214472Y8016D01*
X214692Y8291D01*
X214887Y8581D01*
X215056Y8885D01*
X215199Y9204D01*
X215317Y9536D01*
X215407Y9882D01*
X215473Y10242D01*
X215511Y10617D01*
X215525Y11005D01*
X218525D01*
X218537Y10617D01*
D02*
G37*
G36*
X124538D02*
X124576Y10242D01*
X124642Y9882D01*
X124732Y9536D01*
X124849Y9204D01*
X124993Y8885D01*
X125162Y8581D01*
X125356Y8291D01*
X125577Y8016D01*
X125824Y7754D01*
X120224D01*
X120472Y8016D01*
X120693Y8291D01*
X120887Y8581D01*
X121056Y8885D01*
X121200Y9204D01*
X121317Y9536D01*
X121407Y9882D01*
X121473Y10242D01*
X121511Y10617D01*
X121525Y11005D01*
X124524D01*
X124538Y10617D01*
D02*
G37*
G36*
X43038D02*
X43077Y10242D01*
X43141Y9882D01*
X43233Y9536D01*
X43349Y9204D01*
X43492Y8885D01*
X43661Y8581D01*
X43856Y8291D01*
X44078Y8016D01*
X44324Y7754D01*
X38724D01*
X38971Y8016D01*
X39193Y8291D01*
X39388Y8581D01*
X39557Y8885D01*
X39700Y9204D01*
X39816Y9536D01*
X39908Y9882D01*
X39972Y10242D01*
X40012Y10617D01*
X40025Y11005D01*
X43025D01*
X43038Y10617D01*
D02*
G37*
%LPC*%
G36*
X312657Y40889D02*
X312638Y40659D01*
X313512D01*
Y40866D01*
X312837Y40887D01*
X312657Y40889D01*
D02*
G37*
G36*
X213657Y40891D02*
X213638Y40659D01*
X214512D01*
Y40882D01*
X214336Y40887D01*
X213657Y40891D01*
D02*
G37*
G36*
X119645Y40891D02*
X119627Y40659D01*
X120512D01*
Y40882D01*
X120336Y40887D01*
X119645Y40891D01*
D02*
G37*
G36*
X38157Y40891D02*
X38138Y40659D01*
X39013D01*
Y40882D01*
X38837Y40887D01*
X38157Y40891D01*
D02*
G37*
%LPD*%
D19*
X69500Y217000D02*
D03*
X61500D02*
D03*
X228025Y43397D02*
D03*
X220024D02*
D03*
X134025D02*
D03*
X126024D02*
D03*
X326524D02*
D03*
X318525D02*
D03*
X311024D02*
D03*
X303025D02*
D03*
X212024D02*
D03*
X204025D02*
D03*
X118025D02*
D03*
X110024D02*
D03*
X52525D02*
D03*
X44524D02*
D03*
X36525D02*
D03*
X28525D02*
D03*
D20*
X90544Y191397D02*
D03*
Y199397D02*
D03*
X100544Y191397D02*
D03*
Y199397D02*
D03*
X110544Y191397D02*
D03*
Y199397D02*
D03*
X160544Y191897D02*
D03*
Y199897D02*
D03*
X170544Y191897D02*
D03*
Y199897D02*
D03*
X180544Y191897D02*
D03*
Y199897D02*
D03*
X190544Y191897D02*
D03*
Y199897D02*
D03*
D21*
X70544Y217000D02*
Y225921D01*
Y194544D02*
Y217000D01*
X8500Y126897D02*
X19025D01*
X8500Y88024D02*
Y126897D01*
Y167373D01*
X19025Y175897D02*
X51897D01*
X17025D02*
X19025D01*
X8500Y167373D02*
X17025Y175897D01*
X8500Y88024D02*
X20128Y76397D01*
X108025D01*
X51897Y175897D02*
X70544Y194544D01*
D22*
X227025Y43397D02*
X228025Y44397D01*
Y54075D01*
X222500Y59600D02*
X228025Y54075D01*
X166200Y59600D02*
X222500D01*
X170800Y68400D02*
X319522D01*
X168025Y71175D02*
X170800Y68400D01*
X168025Y71175D02*
Y76397D01*
X319522Y68400D02*
X326524Y61397D01*
X158025Y67775D02*
X166200Y59600D01*
X158025Y67775D02*
Y76397D01*
X59100Y58500D02*
X131503D01*
X52525Y51925D02*
X59100Y58500D01*
X52525Y43397D02*
Y51925D01*
X138024Y65022D02*
Y76397D01*
X131503Y58500D02*
X138024Y65022D01*
X298025Y30897D02*
X303025Y35897D01*
Y43397D01*
X199024Y30897D02*
X204025Y35897D01*
Y43397D01*
X118025Y35897D02*
Y43397D01*
Y35897D02*
X123024Y30897D01*
Y4897D02*
Y30897D01*
X105025D02*
X110024Y35897D01*
Y43397D01*
X23525Y30897D02*
X28525Y35897D01*
Y43397D01*
X23525Y4897D02*
Y30897D01*
X105025Y4897D02*
Y30897D01*
X298025Y4897D02*
Y30897D01*
X199024Y4897D02*
Y30897D01*
X41524Y4897D02*
Y30897D01*
X36525Y36147D02*
Y43397D01*
Y36147D02*
X41524Y31147D01*
X217024Y4897D02*
Y30897D01*
X212024Y36147D02*
Y43397D01*
Y36147D02*
X217024Y31147D01*
X311024Y36147D02*
X316024Y31147D01*
Y30897D02*
Y31147D01*
X311024Y36147D02*
Y43397D01*
X316024Y4897D02*
Y30897D01*
X144025Y43397D02*
X148024Y47397D01*
X134025Y43397D02*
X144025D01*
X148024Y47397D02*
Y76397D01*
X326524Y43397D02*
Y61397D01*
X50524Y231397D02*
X54024Y234897D01*
X195525D01*
X200544Y229877D01*
X90544Y121877D02*
Y191397D01*
Y121877D02*
X108025Y104397D01*
Y86397D02*
Y104397D01*
X100544Y126377D02*
Y191397D01*
Y126377D02*
X118025Y108897D01*
Y86397D02*
Y108897D01*
X110544Y132377D02*
Y191397D01*
Y132377D02*
X128024Y114897D01*
Y86397D02*
Y114897D01*
X200544Y225921D02*
Y229877D01*
X50524Y204397D02*
Y231397D01*
X32024Y185897D02*
X50524Y204397D01*
X17025Y185897D02*
X32024D01*
X90544Y199397D02*
Y225921D01*
X100544Y199397D02*
Y225921D01*
X110544Y199397D02*
Y225921D01*
X17025Y136897D02*
X59025D01*
X80544Y158417D01*
Y225921D01*
X160544Y199897D02*
Y225921D01*
X170544Y199897D02*
Y225921D01*
X180544Y199897D02*
Y225921D01*
X190544Y199897D02*
Y225921D01*
X138024Y86397D02*
Y114897D01*
X160544Y137417D01*
Y191897D01*
X148024Y86397D02*
Y109897D01*
X170544Y132417D01*
Y191897D01*
X158025Y86397D02*
Y105397D01*
X180544Y127917D01*
Y191897D01*
X168025Y86397D02*
Y102377D01*
X190544Y124897D01*
Y191897D01*
D23*
X311024Y43397D02*
X318525D01*
X212024D02*
X220024D01*
X118025D02*
X126024D01*
X36525D02*
X44524D01*
X60040Y218460D02*
X61500Y217000D01*
X60040Y218460D02*
Y225921D01*
D24*
X168025Y76397D02*
D03*
Y86397D02*
D03*
X158025Y76397D02*
D03*
Y86397D02*
D03*
X148024Y76397D02*
D03*
Y86397D02*
D03*
X138024Y76397D02*
D03*
Y86397D02*
D03*
X128024Y76397D02*
D03*
Y86397D02*
D03*
X118025Y76397D02*
D03*
Y86397D02*
D03*
X108025Y76397D02*
D03*
Y86397D02*
D03*
D25*
X19025Y146897D02*
D03*
Y136897D02*
D03*
Y126897D02*
D03*
Y195897D02*
D03*
Y185897D02*
D03*
Y175897D02*
D03*
X210544Y225921D02*
D03*
X200544D02*
D03*
X190544D02*
D03*
X180544D02*
D03*
X170544D02*
D03*
X160544D02*
D03*
X150544D02*
D03*
X140544D02*
D03*
X130544D02*
D03*
X120544D02*
D03*
X110544D02*
D03*
X100544D02*
D03*
X90544D02*
D03*
X80544D02*
D03*
X70544D02*
D03*
X60040D02*
D03*
X41524Y4897D02*
D03*
Y30897D02*
D03*
X23525Y4897D02*
D03*
Y30897D02*
D03*
X123024Y4897D02*
D03*
Y30897D02*
D03*
X105025Y4897D02*
D03*
Y30897D02*
D03*
X217024Y4897D02*
D03*
Y30897D02*
D03*
X199024Y4897D02*
D03*
Y30897D02*
D03*
X316024Y4897D02*
D03*
Y30897D02*
D03*
X298025Y4897D02*
D03*
Y30897D02*
D03*
D26*
X333662Y225921D02*
D03*
Y103874D02*
D03*
X38387Y103873D02*
D03*
Y225921D02*
D03*
M02*
