G04*
G04 #@! TF.GenerationSoftware,Altium Limited,Altium Designer,19.0.12 (326)*
G04*
G04 Layer_Color=0*
%FSLAX25Y25*%
%MOIN*%
G70*
G01*
G75*
%ADD28C,0.00393*%
%ADD37C,0.00100*%
%ADD38C,0.00394*%
D28*
X145598Y71337D02*
X150464D01*
X145338Y91257D02*
X150724D01*
X135598Y71337D02*
X140464D01*
X135338Y91257D02*
X140725D01*
X125598Y71337D02*
X130464D01*
X125338Y91257D02*
X130725D01*
X115598Y71337D02*
X120465D01*
X115338Y91257D02*
X120724D01*
X105598Y71337D02*
X110465D01*
X105338Y91257D02*
X110724D01*
X105018Y71224D02*
X108018Y74224D01*
X105018Y71224D02*
X111018D01*
X108018Y74224D02*
X111018Y71224D01*
X155324Y91317D02*
X160711D01*
X155585Y71397D02*
X160451D01*
X165324Y91317D02*
X170711D01*
X165585Y71397D02*
X170451D01*
D37*
X61563Y214539D02*
Y219461D01*
Y214539D02*
X69437D01*
Y219461D01*
X61563D02*
X69437D01*
X63532Y214539D02*
Y219461D01*
X67469Y214539D02*
Y219461D01*
X220087Y40936D02*
Y45858D01*
Y40936D02*
X227962D01*
Y45858D01*
X220087D02*
X227962D01*
X222056Y40936D02*
Y45858D01*
X225993Y40936D02*
Y45858D01*
X126087Y40936D02*
Y45858D01*
Y40936D02*
X133962D01*
Y45858D01*
X126087D02*
X133962D01*
X128056Y40936D02*
Y45858D01*
X131993Y40936D02*
Y45858D01*
X318587Y40936D02*
Y45858D01*
Y40936D02*
X326462D01*
Y45858D01*
X318587D02*
X326462D01*
X320556Y40936D02*
Y45858D01*
X324493Y40936D02*
Y45858D01*
X303087Y40936D02*
Y45858D01*
Y40936D02*
X310962D01*
Y45858D01*
X303087D02*
X310962D01*
X305056Y40936D02*
Y45858D01*
X308993Y40936D02*
Y45858D01*
X204087Y40936D02*
Y45858D01*
Y40936D02*
X211962D01*
Y45858D01*
X204087D02*
X211962D01*
X206056Y40936D02*
Y45858D01*
X209993Y40936D02*
Y45858D01*
X110087Y40936D02*
Y45858D01*
Y40936D02*
X117962D01*
Y45858D01*
X110087D02*
X117962D01*
X112056Y40936D02*
Y45858D01*
X115993Y40936D02*
Y45858D01*
X44587Y40936D02*
Y45858D01*
Y40936D02*
X52462D01*
Y45858D01*
X44587D02*
X52462D01*
X46556Y40936D02*
Y45858D01*
X50493Y40936D02*
Y45858D01*
X28587Y40936D02*
Y45858D01*
Y40936D02*
X36462D01*
Y45858D01*
X28587D02*
X36462D01*
X30556Y40936D02*
Y45858D01*
X34493Y40936D02*
Y45858D01*
X88084Y199334D02*
X93005D01*
X88084Y191460D02*
Y199334D01*
Y191460D02*
X93005D01*
Y199334D01*
X88084Y197366D02*
X93005D01*
X88084Y193429D02*
X93005D01*
X98084Y199334D02*
X103005D01*
X98084Y191460D02*
Y199334D01*
Y191460D02*
X103005D01*
Y199334D01*
X98084Y197366D02*
X103005D01*
X98084Y193429D02*
X103005D01*
X108084Y199334D02*
X113005D01*
X108084Y191460D02*
Y199334D01*
Y191460D02*
X113005D01*
Y199334D01*
X108084Y197366D02*
X113005D01*
X108084Y193429D02*
X113005D01*
X158084Y199834D02*
X163005D01*
X158084Y191960D02*
Y199834D01*
Y191960D02*
X163005D01*
Y199834D01*
X158084Y197866D02*
X163005D01*
X158084Y193929D02*
X163005D01*
X168084Y199834D02*
X173005D01*
X168084Y191960D02*
Y199834D01*
Y191960D02*
X173005D01*
Y199834D01*
X168084Y197866D02*
X173005D01*
X168084Y193929D02*
X173005D01*
X178084Y199834D02*
X183005D01*
X178084Y191960D02*
Y199834D01*
Y191960D02*
X183005D01*
Y199834D01*
X178084Y197866D02*
X183005D01*
X178084Y193929D02*
X183005D01*
X188084Y199834D02*
X193005D01*
X188084Y191960D02*
Y199834D01*
Y191960D02*
X193005D01*
Y199834D01*
X188084Y197866D02*
X193005D01*
X188084Y193929D02*
X193005D01*
D38*
X143038Y73897D02*
Y88897D01*
Y73897D02*
X145598Y71337D01*
X143038Y88897D02*
X145338Y91257D01*
X150724D02*
X153024Y88897D01*
X150464Y71337D02*
X153024Y73897D01*
Y88897D01*
X146724Y75097D02*
Y77697D01*
Y75097D02*
X149325D01*
Y77697D01*
X146724D02*
X149325D01*
X146724Y76397D02*
X149325D01*
X146724Y75097D02*
X149325Y77697D01*
X146724D02*
X149325Y75097D01*
X146724Y87697D02*
X149325Y85097D01*
X146724D02*
X149325Y87697D01*
X146724Y86397D02*
X149325D01*
X146724Y87697D02*
X149325D01*
Y85097D02*
Y87697D01*
X146724Y85097D02*
X149325D01*
X146724D02*
Y87697D01*
X133038Y73897D02*
X135598Y71337D01*
X133038Y88897D02*
X135338Y91257D01*
X140725D02*
X143025Y88897D01*
X140464Y71337D02*
X143025Y73897D01*
Y88897D01*
X136724Y75097D02*
Y77697D01*
Y75097D02*
X139324D01*
Y77697D01*
X136724D02*
X139324D01*
X136724Y76397D02*
X139324D01*
X136724Y75097D02*
X139324Y77697D01*
X136724D02*
X139324Y75097D01*
X136724Y87697D02*
X139324Y85097D01*
X136724D02*
X139324Y87697D01*
X136724Y86397D02*
X139324D01*
X136724Y87697D02*
X139324D01*
Y85097D02*
Y87697D01*
X136724Y85097D02*
X139324D01*
X136724D02*
Y87697D01*
X123038Y73897D02*
X125598Y71337D01*
X123038Y88897D02*
X125338Y91257D01*
X130725D02*
X133025Y88897D01*
X130464Y71337D02*
X133025Y73897D01*
Y88897D01*
X126725Y75097D02*
Y77697D01*
Y75097D02*
X129324D01*
Y77697D01*
X126725D02*
X129324D01*
X126725Y76397D02*
X129324D01*
X126725Y75097D02*
X129324Y77697D01*
X126725D02*
X129324Y75097D01*
X126725Y87697D02*
X129324Y85097D01*
X126725D02*
X129324Y87697D01*
X126725Y86397D02*
X129324D01*
X126725Y87697D02*
X129324D01*
Y85097D02*
Y87697D01*
X126725Y85097D02*
X129324D01*
X126725D02*
Y87697D01*
X113038Y73897D02*
X115598Y71337D01*
X113038Y88897D02*
X115338Y91257D01*
X120724D02*
X123024Y88897D01*
X120465Y71337D02*
X123024Y73897D01*
Y88897D01*
X116725Y75097D02*
Y77697D01*
Y75097D02*
X119325D01*
Y77697D01*
X116725D02*
X119325D01*
X116725Y76397D02*
X119325D01*
X116725Y75097D02*
X119325Y77697D01*
X116725D02*
X119325Y75097D01*
X116725Y87697D02*
X119325Y85097D01*
X116725D02*
X119325Y87697D01*
X116725Y86397D02*
X119325D01*
X116725Y87697D02*
X119325D01*
Y85097D02*
Y87697D01*
X116725Y85097D02*
X119325D01*
X116725D02*
Y87697D01*
X103038Y73897D02*
Y88897D01*
Y73897D02*
X105598Y71337D01*
X103038Y88897D02*
X105338Y91257D01*
X110724D02*
X113024Y88897D01*
X110465Y71337D02*
X113024Y73897D01*
Y88897D01*
X106725Y75097D02*
Y77697D01*
Y75097D02*
X109325D01*
Y77697D01*
X106725D02*
X109325D01*
X106725Y76397D02*
X109325D01*
X106725Y75097D02*
X109325Y77697D01*
X106725D02*
X109325Y75097D01*
X106725Y87697D02*
X109325Y85097D01*
X106725D02*
X109325Y87697D01*
X106725Y86397D02*
X109325D01*
X106725Y87697D02*
X109325D01*
Y85097D02*
Y87697D01*
X106725Y85097D02*
X109325D01*
X106725D02*
Y87697D01*
X156725Y85097D02*
Y87697D01*
Y85097D02*
X159325D01*
Y87697D01*
X156725D02*
X159325D01*
X156725Y86397D02*
X159325D01*
X156725Y85097D02*
X159325Y87697D01*
X156725D02*
X159325Y85097D01*
X156725Y77697D02*
X159325Y75097D01*
X156725D02*
X159325Y77697D01*
X156725Y76397D02*
X159325D01*
X156725Y77697D02*
X159325D01*
Y75097D02*
Y77697D01*
X156725Y75097D02*
X159325D01*
X156725D02*
Y77697D01*
X166725Y85097D02*
Y87697D01*
Y85097D02*
X169325D01*
Y87697D01*
X166725D02*
X169325D01*
X166725Y86397D02*
X169325D01*
X166725Y85097D02*
X169325Y87697D01*
X166725D02*
X169325Y85097D01*
X166725Y77697D02*
X169325Y75097D01*
X166725D02*
X169325Y77697D01*
X166725Y76397D02*
X169325D01*
X166725Y77697D02*
X169325D01*
Y75097D02*
Y77697D01*
X166725Y75097D02*
X169325D01*
X166725D02*
Y77697D01*
X160451Y71397D02*
X163011Y73957D01*
X160711Y91317D02*
X163011Y88957D01*
X153024D02*
X155324Y91317D01*
X153024Y73957D02*
X155585Y71397D01*
X170711Y91317D02*
X173011Y88957D01*
X163024D02*
X165324Y91317D01*
X163024Y73957D02*
X165585Y71397D01*
X163011Y73897D02*
Y88897D01*
X173038Y73984D02*
Y88897D01*
X170451Y71397D02*
X173038Y73984D01*
M02*
