G04*
G04 #@! TF.GenerationSoftware,Altium Limited,Altium Designer,19.0.12 (326)*
G04*
G04 Layer_Physical_Order=1*
G04 Layer_Color=255*
%FSLAX25Y25*%
%MOIN*%
G70*
G01*
G75*
%ADD13C,0.01000*%
%ADD15C,0.02000*%
%ADD46C,0.06000*%
%ADD49C,0.07874*%
%ADD55O,0.07874X0.05512*%
%ADD56R,0.07874X0.05512*%
%ADD57C,0.03000*%
%ADD58R,0.05500X0.05000*%
%ADD59R,0.05906X0.02362*%
%ADD60R,0.05000X0.05500*%
%ADD61R,0.08300X0.15700*%
%ADD62R,0.06890X0.10433*%
%ADD63R,0.18110X0.04921*%
%ADD64R,0.18504X0.04921*%
%ADD65R,0.12598X0.03937*%
%ADD66R,0.06063X0.02408*%
%ADD67R,0.05906X0.06693*%
%ADD68R,0.03937X0.09449*%
%ADD69R,0.12992X0.09449*%
%ADD70R,0.09449X0.03937*%
%ADD71R,0.09449X0.12992*%
%ADD72R,0.13780X0.05512*%
%ADD73C,0.01500*%
%ADD74C,0.02500*%
%ADD75C,0.10000*%
%ADD76C,0.08000*%
%ADD77C,0.05000*%
%ADD78R,0.26028X0.54000*%
%ADD79R,0.18400X0.03900*%
%ADD80C,0.06000*%
%ADD81C,0.08386*%
%ADD82C,0.10000*%
%ADD83C,0.20000*%
%ADD84O,0.07874X0.07874*%
%ADD85C,0.02000*%
G36*
X237021Y348366D02*
X237658Y348102D01*
X238231Y347719D01*
X238719Y347231D01*
X239102Y346658D01*
X239366Y346021D01*
X239500Y345345D01*
X239500Y345000D01*
X239500Y342000D01*
X239500Y342000D01*
X239500Y341557D01*
X239327Y340687D01*
X238988Y339868D01*
X238495Y339131D01*
X237869Y338505D01*
X237132Y338012D01*
X236313Y337673D01*
X235443Y337500D01*
X235000Y337500D01*
X214500Y337500D01*
X214500Y337500D01*
X214108Y337481D01*
X213339Y337328D01*
X212614Y337028D01*
X211962Y336592D01*
X211408Y336038D01*
X210972Y335386D01*
X210672Y334661D01*
X210519Y333892D01*
X210500Y333500D01*
Y322000D01*
Y322000D01*
X210538Y321610D01*
X210837Y320888D01*
X211388Y320337D01*
X212110Y320038D01*
X212500Y320000D01*
X212500Y269149D01*
X246800Y269000D01*
Y231804D01*
X265394D01*
X266167Y231651D01*
X266895Y231349D01*
X267550Y230911D01*
X268107Y230354D01*
X268545Y229699D01*
X268846Y228971D01*
X269000Y228198D01*
Y227804D01*
Y208601D01*
X373500D01*
Y215202D01*
X391000Y215202D01*
Y208601D01*
X521000D01*
Y200403D01*
X203200D01*
Y232000D01*
X184412D01*
X184412Y232000D01*
X183932Y232000D01*
X183045Y232367D01*
X182367Y233046D01*
X182000Y233932D01*
X182000Y234412D01*
Y245795D01*
Y246134D01*
X182260Y246761D01*
X182739Y247240D01*
X183366Y247500D01*
X183705D01*
X184152Y247544D01*
X184980Y247887D01*
X185613Y248520D01*
X185956Y249347D01*
X186000Y249795D01*
Y256500D01*
X190500Y257500D01*
X190538Y257110D01*
X190837Y256389D01*
X191389Y255837D01*
X192110Y255538D01*
X192500Y255500D01*
X199500Y255500D01*
X199843Y255517D01*
X200516Y255650D01*
X201150Y255913D01*
X201721Y256294D01*
X202206Y256779D01*
X202587Y257350D01*
X202850Y257984D01*
X202983Y258657D01*
X203000Y259000D01*
X203000Y274976D01*
X206642Y279000D01*
X209500D01*
Y282449D01*
Y298000D01*
X209500D01*
X208811Y297967D01*
X207438Y298081D01*
X206091Y298374D01*
X204793Y298840D01*
X203568Y299471D01*
X202435Y300257D01*
X201415Y301184D01*
X200524Y302236D01*
X199778Y303395D01*
X199191Y304642D01*
X198770Y305955D01*
X198525Y307312D01*
X198492Y308000D01*
X198492Y338500D01*
Y339485D01*
X198876Y341417D01*
X199630Y343237D01*
X200725Y344875D01*
X202117Y346268D01*
X203755Y347362D01*
X205575Y348116D01*
X207507Y348500D01*
X236000D01*
X236000Y348500D01*
X236345Y348500D01*
X237021Y348366D01*
D02*
G37*
G36*
X221398Y331666D02*
X221646Y331418D01*
X221779Y331095D01*
X221779Y330920D01*
X221779Y330920D01*
X221779Y321981D01*
X221780Y321786D01*
X221630Y321425D01*
X221355Y321149D01*
X220994Y321000D01*
X220799Y321000D01*
X220799D01*
X218760Y321000D01*
X218565Y321000D01*
X218205Y321149D01*
X217929Y321425D01*
X217779Y321786D01*
X217779Y321981D01*
Y321981D01*
X217880Y330920D01*
Y331095D01*
X218014Y331418D01*
X218262Y331666D01*
X218585Y331800D01*
X218760D01*
X218760Y331800D01*
X220900Y331800D01*
X221075Y331800D01*
X221398Y331666D01*
D02*
G37*
G36*
X183850Y296772D02*
X184272Y296350D01*
X184500Y295798D01*
X184500Y295500D01*
X184500Y276000D01*
X184500Y276000D01*
X184508Y275713D01*
X184412Y275146D01*
X184207Y274609D01*
X183902Y274122D01*
X183507Y273704D01*
X183039Y273371D01*
X182514Y273136D01*
X181954Y273008D01*
X181667Y273000D01*
X178000Y273000D01*
X178000Y273000D01*
X177512Y272952D01*
X176611Y272579D01*
X175921Y271889D01*
X175548Y270988D01*
X175500Y270500D01*
Y233500D01*
X175500Y233500D01*
X175500Y233102D01*
X175196Y232367D01*
X174633Y231804D01*
X173898Y231500D01*
X173500Y231500D01*
X162102D01*
X161367Y231804D01*
X160804Y232367D01*
X160500Y233102D01*
Y233500D01*
Y295000D01*
Y295398D01*
X160804Y296133D01*
X161367Y296695D01*
X162102Y297000D01*
X183000D01*
X183000Y297000D01*
X183298Y297000D01*
X183850Y296772D01*
D02*
G37*
G36*
X246395Y275100D02*
X232100Y275100D01*
Y282000D01*
X214000D01*
Y318500D01*
X246500D01*
X246395Y275100D01*
D02*
G37*
%LPC*%
G36*
X199500Y255500D02*
D01*
X199500D01*
X199500D01*
D02*
G37*
%LPD*%
D13*
X332790Y324790D02*
X340000Y332000D01*
X332790Y316290D02*
Y324790D01*
X330537Y323256D02*
Y332537D01*
X329281Y322000D02*
X330537Y323256D01*
Y332537D02*
X340000Y342000D01*
X319663Y363337D02*
X328663D01*
X317000Y366000D02*
X319663Y363337D01*
X313000Y366000D02*
X317000D01*
X320463Y382463D02*
X329537D01*
X316000Y378000D02*
X320463Y382463D01*
X313000Y378000D02*
X316000D01*
X329000Y373000D02*
X340000Y362000D01*
X313000Y373000D02*
X329000D01*
X328663Y363337D02*
X340000Y352000D01*
X329537Y382463D02*
X340000Y372000D01*
X316000Y327900D02*
X325100D01*
X316020Y337900D02*
X325100D01*
X316000Y337920D02*
X316020Y337900D01*
X316181Y347900D02*
X325100D01*
X316000Y347719D02*
X316181Y347900D01*
X316000Y357900D02*
X325100D01*
X300338Y322000D02*
X329281D01*
X294438Y327900D02*
X300338Y322000D01*
X328500Y312000D02*
X332790Y316290D01*
X301430Y312000D02*
X328500D01*
X265100Y327900D02*
X294438D01*
X295530Y317900D02*
X301430Y312000D01*
X265100Y317900D02*
X295530D01*
X335000Y304730D02*
Y317000D01*
X340000Y322000D01*
X333330Y303060D02*
X335000Y304730D01*
X269940Y303060D02*
X333330D01*
X265100Y307900D02*
X269940Y303060D01*
X331188Y293000D02*
X340000Y301812D01*
Y312000D01*
X270000Y293000D02*
X331188D01*
X265100Y297900D02*
X270000Y293000D01*
X180310Y262526D02*
X181283Y263500D01*
X180310Y259000D02*
Y262526D01*
X181283Y263500D02*
Y267000D01*
X184810Y271500D02*
X192034D01*
X183039Y269729D02*
X184810Y271500D01*
X183039Y268755D02*
Y269729D01*
X192034Y271500D02*
X196283Y267250D01*
X181283Y267000D02*
X183039Y268755D01*
D15*
X298500Y417300D02*
Y439800D01*
X296300Y442000D02*
X298500Y439800D01*
X290646Y442000D02*
X296300D01*
X307120Y388520D02*
Y395079D01*
X306500Y382500D02*
Y387900D01*
X307120Y395079D02*
X307301Y395260D01*
X306500Y387900D02*
X307120Y388520D01*
X298500Y338300D02*
Y387900D01*
Y409300D01*
X307301Y395260D02*
X307740D01*
X323511Y397900D02*
X325100D01*
X320870Y395260D02*
X323511Y397900D01*
X307740Y395260D02*
X320870D01*
X308000Y357900D02*
Y381000D01*
X306500Y382500D02*
X308000Y381000D01*
Y347719D02*
Y357900D01*
Y337920D02*
Y347719D01*
Y327900D02*
Y337920D01*
X350000Y352000D02*
Y362000D01*
X345000Y367000D02*
Y385000D01*
Y367000D02*
X350000Y362000D01*
X332100Y397900D02*
X345000Y385000D01*
X325100Y397900D02*
X332100D01*
X448900Y262000D02*
Y262594D01*
X452306Y266000D02*
X466618D01*
X448900Y262594D02*
X452306Y266000D01*
X454200Y247500D02*
X466900D01*
X448800Y252900D02*
X454200Y247500D01*
X448800Y271400D02*
X468900D01*
X466618Y266000D02*
X468900Y263718D01*
Y260500D02*
Y263718D01*
X448800Y262100D02*
X448900Y262000D01*
X466900Y247500D02*
X468900Y245500D01*
Y242000D02*
Y245500D01*
Y242000D02*
X469000Y241900D01*
D46*
X517600Y222900D02*
Y272000D01*
X517500Y208500D02*
X517600Y208600D01*
Y222900D01*
X182800Y576613D02*
X216400D01*
X483481Y345906D02*
X517600D01*
X517500Y205500D02*
Y208500D01*
X250000Y367500D02*
Y377035D01*
X248500Y366000D02*
X250000Y367500D01*
Y393965D02*
Y405000D01*
X249555Y394409D02*
X250000Y393965D01*
X492618Y264500D02*
X493400Y263718D01*
X487500Y264500D02*
X492618D01*
X483481Y268519D02*
X487500Y264500D01*
X492700Y246000D02*
X493500Y245200D01*
X487776Y246000D02*
X492700D01*
X483481Y250295D02*
X487776Y246000D01*
X486500Y227500D02*
X493200D01*
Y222900D02*
Y227500D01*
X483481Y230519D02*
X486500Y227500D01*
X483481Y230519D02*
Y233481D01*
Y250295D02*
Y251615D01*
X493500Y241500D02*
Y245200D01*
X493400Y260018D02*
Y263718D01*
X483481Y290040D02*
X483522Y290000D01*
X517600D01*
X499000Y362071D02*
X499035Y362035D01*
X517965D01*
X518000Y362000D01*
X483481Y308662D02*
X517600D01*
X483481Y327284D02*
X517600D01*
X172870Y316939D02*
Y343000D01*
D49*
X276500Y576613D02*
D03*
X246500D02*
D03*
X216400D02*
D03*
X245928Y486939D02*
D03*
X216400Y495600D02*
D03*
X245928Y518000D02*
D03*
X216400Y526661D02*
D03*
X216972Y554661D02*
D03*
X246500Y546000D02*
D03*
X309000Y551000D02*
D03*
X269630D02*
D03*
X269800Y521000D02*
D03*
X309170D02*
D03*
Y491200D02*
D03*
X269800D02*
D03*
X265100Y217900D02*
D03*
Y227900D02*
D03*
Y237900D02*
D03*
Y247900D02*
D03*
Y257900D02*
D03*
Y267900D02*
D03*
Y277900D02*
D03*
Y287900D02*
D03*
Y297900D02*
D03*
Y307900D02*
D03*
Y317900D02*
D03*
Y327900D02*
D03*
Y337900D02*
D03*
Y347900D02*
D03*
Y357900D02*
D03*
Y367900D02*
D03*
Y377900D02*
D03*
Y387900D02*
D03*
Y397900D02*
D03*
Y407900D02*
D03*
X325100D02*
D03*
Y397900D02*
D03*
Y387900D02*
D03*
Y357900D02*
D03*
Y347900D02*
D03*
Y337900D02*
D03*
Y327900D02*
D03*
Y277900D02*
D03*
Y267900D02*
D03*
Y257900D02*
D03*
Y247900D02*
D03*
Y237900D02*
D03*
Y227900D02*
D03*
X517600Y272000D02*
D03*
Y308662D02*
D03*
Y327284D02*
D03*
Y345906D02*
D03*
X518000Y362000D02*
D03*
X517600Y290000D02*
D03*
X213028Y458748D02*
D03*
X193342D02*
D03*
X172870Y343000D02*
D03*
X233500D02*
D03*
D55*
X370883Y337540D02*
D03*
X382694Y311556D02*
D03*
X370883Y317855D02*
D03*
Y247776D02*
D03*
Y298170D02*
D03*
Y285572D02*
D03*
Y272973D02*
D03*
Y260375D02*
D03*
X483481Y308662D02*
D03*
Y290040D02*
D03*
Y327284D02*
D03*
Y345906D02*
D03*
Y364528D02*
D03*
Y271418D02*
D03*
Y252796D02*
D03*
Y234174D02*
D03*
X382694Y331241D02*
D03*
Y239902D02*
D03*
Y254076D02*
D03*
Y266674D02*
D03*
Y279272D02*
D03*
Y291871D02*
D03*
Y350926D02*
D03*
D56*
X370883Y358800D02*
D03*
D57*
Y272973D02*
X370756Y273100D01*
X364170Y298170D02*
X363800Y297800D01*
X363700Y285700D02*
X363828Y285572D01*
X241638Y326500D02*
X241555Y326417D01*
X248000Y334993D02*
X247500Y334492D01*
X397950Y273500D02*
Y285500D01*
X406150Y262850D02*
X411100D01*
X396900Y265800D02*
X397150Y265550D01*
X398470D01*
X382094Y240001D02*
X382694Y240601D01*
X382094Y240001D02*
X389901D01*
X233500Y342992D02*
X248000D01*
X206000Y304000D02*
X207500Y302500D01*
X188310Y223718D02*
Y259000D01*
Y259724D02*
X189284Y258750D01*
X188284Y259750D02*
X188310Y259724D01*
X419000Y205500D02*
Y245000D01*
Y203500D02*
Y205500D01*
X517500D01*
X206528D02*
X419000D01*
X188310Y259000D02*
Y259724D01*
Y223718D02*
X206528Y205500D01*
X356100Y214000D02*
Y217392D01*
X356208Y217500D01*
X398311Y361200D02*
X402642D01*
X397011Y359900D02*
X398311Y361200D01*
X392000Y359900D02*
X397011D01*
X391000Y358900D02*
X392000Y359900D01*
X402200Y266800D02*
X406150Y262850D01*
X397900Y266800D02*
X402200D01*
X397900Y264980D02*
X398470Y265550D01*
X397900Y261730D02*
Y264980D01*
X396188Y260018D02*
X397900Y261730D01*
X380022Y260018D02*
X396188D01*
X374500Y253500D02*
X382694Y245306D01*
Y240601D02*
Y245306D01*
X265500Y237500D02*
X276900D01*
X265100Y237900D02*
X265500Y237500D01*
X202000Y294278D02*
X205278D01*
X205500Y294500D01*
X216572Y553161D02*
X217421Y554009D01*
X216400Y526661D02*
X216783D01*
X363700Y273100D02*
X370756D01*
X341800Y237980D02*
X347200D01*
X364170Y298170D02*
X370883D01*
X216000Y326417D02*
X223445D01*
X311354Y448500D02*
Y453854D01*
X311500Y454000D01*
X243542Y304600D02*
X250900D01*
X461000Y206000D02*
Y236500D01*
X398050Y240150D02*
Y253650D01*
X405000Y245000D02*
X410500D01*
X411100Y262600D02*
Y262850D01*
X395243Y297500D02*
X398000Y294743D01*
Y291871D02*
Y294743D01*
X397950Y285500D02*
Y291821D01*
Y266850D02*
Y273500D01*
X397900Y266800D02*
X397950Y266850D01*
Y291821D02*
X398000Y291871D01*
X357783Y267717D02*
X375123D01*
X355700Y269800D02*
X357783Y267717D01*
X355700Y269800D02*
Y273100D01*
Y285700D02*
X355772Y285628D01*
Y281500D02*
Y285628D01*
X355750Y294000D02*
Y297750D01*
Y294000D02*
X358250Y291500D01*
X372827D01*
X355750Y297750D02*
X355800Y297800D01*
X358000Y279272D02*
X373772D01*
X355772Y281500D02*
X358000Y279272D01*
X363828Y285572D02*
X370883D01*
X182665Y285000D02*
X196583D01*
X180165D02*
X182665D01*
X333770Y247930D02*
X333800Y247960D01*
X325130Y247930D02*
X333770D01*
X325100Y247900D02*
X325130Y247930D01*
X244900Y311000D02*
X251000D01*
X232500Y317000D02*
Y326417D01*
Y312000D02*
Y314500D01*
Y309500D02*
Y312000D01*
Y314500D02*
Y317000D01*
X356208Y217500D02*
Y240492D01*
X349850Y246850D02*
X356208Y240492D01*
X349850Y246850D02*
Y259950D01*
X351400Y261500D02*
X355100D01*
X349850Y259950D02*
X351400Y261500D01*
X341960Y258100D02*
X345600D01*
X341800Y257940D02*
X341960Y258100D01*
X341860Y247900D02*
X345700D01*
X341800Y247960D02*
X341860Y247900D01*
X314037Y211463D02*
X329963D01*
X311000Y214500D02*
X314037Y211463D01*
X311000Y214500D02*
Y232897D01*
X306397Y237500D02*
X311000Y232897D01*
X284900Y237500D02*
X306397D01*
X329963Y211463D02*
X333000Y214500D01*
Y222000D01*
X398000Y240100D02*
X398050Y240150D01*
X398000Y217900D02*
Y240100D01*
X398050Y253650D02*
X398100Y253700D01*
X410500Y245000D02*
X410653Y245153D01*
X410982Y245353D02*
Y253847D01*
X411135Y254000D01*
X419100Y263100D02*
X419600Y262600D01*
X419118Y254018D02*
X419135Y254000D01*
X419118Y254018D02*
Y262582D01*
X419100Y262600D02*
X419118Y262582D01*
X419600Y262600D02*
X433500D01*
X434000Y262100D01*
Y271400D01*
Y252900D02*
Y262100D01*
X375123Y267717D02*
X380906Y273500D01*
X397950D01*
X373772Y279272D02*
X380000Y285500D01*
X397950D01*
X372827Y291500D02*
X378827Y297500D01*
X395243D01*
X374500Y254496D02*
X380022Y260018D01*
X374500Y253500D02*
Y254496D01*
X382694Y291871D02*
X390000D01*
X382694Y279272D02*
X390000D01*
X389837Y266737D02*
X389900Y266800D01*
X382757Y266737D02*
X389837D01*
X382694Y266674D02*
X382757Y266737D01*
X389912Y253888D02*
X390100Y253700D01*
X382882Y253888D02*
X389912D01*
X382694Y254076D02*
X382882Y253888D01*
X389901Y240001D02*
X390000Y240100D01*
X382192Y217500D02*
X382694Y218002D01*
Y239902D01*
X362600Y253500D02*
X374500D01*
X355100D02*
X362600D01*
X333750Y227950D02*
X333800Y228000D01*
X325150Y227950D02*
X333750D01*
X325100Y227900D02*
X325150Y227950D01*
X333760Y237940D02*
X333800Y237980D01*
X325140Y237940D02*
X333760D01*
X325100Y237900D02*
X325140Y237940D01*
X333780Y257920D02*
X333800Y257940D01*
X325120Y257920D02*
X333780D01*
X325100Y257900D02*
X325120Y257920D01*
X325100Y267900D02*
X333800D01*
X325100Y277900D02*
X333800D01*
X341800Y228000D02*
X347200D01*
X341800Y267900D02*
X347200D01*
X341800Y277900D02*
X347200D01*
X461000Y236500D02*
Y241900D01*
X460900Y255100D02*
Y260500D01*
Y279100D02*
Y284500D01*
X468900Y234100D02*
Y241800D01*
X469000Y241900D01*
X468900Y252700D02*
Y260500D01*
Y271400D02*
Y279100D01*
X476900Y234100D02*
X476937Y234137D01*
X483444D01*
X483481Y234174D01*
X476900Y271400D02*
X476909Y271409D01*
X483472D01*
X483481Y271418D01*
X476900Y252700D02*
X476948Y252748D01*
X483433D01*
X483481Y252796D01*
X518000Y362000D02*
Y364200D01*
X517800Y260018D02*
Y271000D01*
X254600Y297600D02*
X256250Y299250D01*
X251900Y297600D02*
X254600D01*
X250900Y296600D02*
X251900Y297600D01*
X391586Y337400D02*
X391621Y337435D01*
X256250Y299250D02*
Y325750D01*
X255500Y326500D02*
X256250Y325750D01*
X208900Y277100D02*
X220642D01*
X196528Y294000D02*
X196583Y294055D01*
X196805Y294278D01*
X202000D01*
X196583Y285000D02*
X205500D01*
X253743Y342750D02*
X255500Y340992D01*
X248243Y342750D02*
X253743D01*
X248000Y342992D02*
X248243Y342750D01*
X255500Y326500D02*
Y340992D01*
X247500Y326500D02*
Y334492D01*
X241638Y326500D02*
X247500D01*
X250750Y319000D02*
X251000D01*
X248500Y321250D02*
X250750Y319000D01*
X248500Y321250D02*
Y325500D01*
X247500Y326500D02*
X248500Y325500D01*
X233500Y342992D02*
Y343000D01*
X216000Y326390D02*
Y326417D01*
X206000Y255000D02*
Y275500D01*
X203000Y252000D02*
X206000Y255000D01*
X205087Y316400D02*
X206000Y315487D01*
Y304000D02*
Y315487D01*
X189284Y254000D02*
Y258750D01*
X188284Y259750D02*
Y267000D01*
X189284Y254000D02*
X191284Y252000D01*
X196283Y267250D02*
Y275646D01*
Y267000D02*
Y267250D01*
Y275646D02*
X196583Y275945D01*
X191284Y252000D02*
X203000D01*
X198492Y316400D02*
X205087D01*
X370724Y358318D02*
X370741Y358335D01*
D58*
X298500Y417300D02*
D03*
Y409300D02*
D03*
X248000Y334993D02*
D03*
Y342992D02*
D03*
X250900Y304600D02*
D03*
Y296600D02*
D03*
X391000Y350900D02*
D03*
Y358900D02*
D03*
X391100Y310500D02*
D03*
Y318500D02*
D03*
X391000Y330400D02*
D03*
Y338400D02*
D03*
X205500Y294500D02*
D03*
Y302500D02*
D03*
Y285000D02*
D03*
Y277000D02*
D03*
X251000Y319000D02*
D03*
Y311000D02*
D03*
X362600Y253500D02*
D03*
Y261500D02*
D03*
X355100Y253500D02*
D03*
Y261500D02*
D03*
D59*
X307740Y395260D02*
D03*
Y402740D02*
D03*
X300260Y399000D02*
D03*
D60*
X298500Y387900D02*
D03*
X306500D02*
D03*
X308000Y327900D02*
D03*
X316000D02*
D03*
X308000Y337920D02*
D03*
X316000D02*
D03*
X308000Y347719D02*
D03*
X316000D02*
D03*
X308000Y357900D02*
D03*
X316000D02*
D03*
X284900Y237500D02*
D03*
X276900D02*
D03*
X341800Y228000D02*
D03*
X333800D02*
D03*
X341800Y237980D02*
D03*
X333800D02*
D03*
X341800Y247960D02*
D03*
X333800D02*
D03*
X341800Y257940D02*
D03*
X333800D02*
D03*
X341800Y267900D02*
D03*
X333800D02*
D03*
X341800Y277900D02*
D03*
X333800D02*
D03*
X355700Y273100D02*
D03*
X363700D02*
D03*
X355700Y285700D02*
D03*
X363700D02*
D03*
X355800Y297800D02*
D03*
X363800D02*
D03*
X398000Y240100D02*
D03*
X390000D02*
D03*
X398100Y253700D02*
D03*
X390100D02*
D03*
X397900Y266800D02*
D03*
X389900D02*
D03*
X398000Y279272D02*
D03*
X390000D02*
D03*
X398000Y291871D02*
D03*
X390000D02*
D03*
X411000Y245000D02*
D03*
X419000D02*
D03*
X411135Y254000D02*
D03*
X419135D02*
D03*
X419100Y262600D02*
D03*
X411100D02*
D03*
X378000Y450000D02*
D03*
X370000D02*
D03*
X358500D02*
D03*
X350500D02*
D03*
X378000Y428500D02*
D03*
X370000D02*
D03*
X358500D02*
D03*
X350500D02*
D03*
X339500D02*
D03*
X331500D02*
D03*
X339500Y450000D02*
D03*
X331500D02*
D03*
X283000Y437500D02*
D03*
X275000D02*
D03*
Y445000D02*
D03*
X283000D02*
D03*
X275000Y453000D02*
D03*
X283000D02*
D03*
X468900Y260500D02*
D03*
X460900D02*
D03*
X468900Y279100D02*
D03*
X460900D02*
D03*
X468900Y271400D02*
D03*
X476900D02*
D03*
X468900Y252700D02*
D03*
X476900D02*
D03*
X469000Y241900D02*
D03*
X461000D02*
D03*
X468900Y234100D02*
D03*
X476900D02*
D03*
X216000Y326390D02*
D03*
X208000D02*
D03*
X173284Y267000D02*
D03*
X181283D02*
D03*
X180310Y259000D02*
D03*
X188310D02*
D03*
X196283Y267000D02*
D03*
X188284D02*
D03*
X255500Y326500D02*
D03*
X247500D02*
D03*
X303500Y454000D02*
D03*
X311500D02*
D03*
D61*
X517900Y241500D02*
D03*
X493500D02*
D03*
X517800Y260018D02*
D03*
X493400D02*
D03*
X517600Y222900D02*
D03*
X493200D02*
D03*
D62*
X250000Y377035D02*
D03*
Y393965D02*
D03*
D63*
X382192Y217500D02*
D03*
X196492Y316400D02*
D03*
D64*
X356208Y217500D02*
D03*
X170508Y316400D02*
D03*
D65*
X402642Y361200D02*
D03*
X420358D02*
D03*
X402742Y338300D02*
D03*
X420458D02*
D03*
X402642Y315300D02*
D03*
X420358D02*
D03*
X187858Y243500D02*
D03*
X170142D02*
D03*
X238358Y277100D02*
D03*
X220642D02*
D03*
D66*
X290646Y432000D02*
D03*
Y437000D02*
D03*
Y442000D02*
D03*
Y447000D02*
D03*
X311354Y447000D02*
D03*
Y442000D02*
D03*
Y437000D02*
D03*
Y432000D02*
D03*
D67*
X434000Y262100D02*
D03*
X448800D02*
D03*
X434000Y252900D02*
D03*
X448800D02*
D03*
X434000Y271400D02*
D03*
X448800D02*
D03*
D68*
X241555Y326417D02*
D03*
X232500D02*
D03*
X223445D02*
D03*
D69*
X232500Y303583D02*
D03*
D70*
X196583Y275945D02*
D03*
Y285000D02*
D03*
Y294055D02*
D03*
D71*
X173748Y285000D02*
D03*
D72*
X499000Y345929D02*
D03*
Y362071D02*
D03*
D73*
X331000Y428500D02*
Y433000D01*
X297000Y448000D02*
Y456500D01*
X295200Y458300D02*
X297000Y456500D01*
X276400Y458300D02*
X295200D01*
X275000Y456900D02*
X276400Y458300D01*
X275000Y453000D02*
Y456900D01*
X466000Y437500D02*
Y441000D01*
X444000Y463000D02*
X466000Y441000D01*
X414000Y463000D02*
X444000D01*
X401000Y450000D02*
X414000Y463000D01*
X378000Y450000D02*
X401000D01*
X306000Y442000D02*
X311354D01*
X305000Y443000D02*
X306000Y442000D01*
X305000Y443000D02*
Y446500D01*
X303500Y448000D02*
X305000Y446500D01*
X303500Y448000D02*
Y454000D01*
X301500Y439000D02*
X303500Y437000D01*
X311354D01*
X301500Y439000D02*
Y443500D01*
X297000Y448000D02*
X301500Y443500D01*
X283000Y445000D02*
Y453000D01*
Y444750D02*
Y445000D01*
Y444750D02*
X285364Y442386D01*
X290260D01*
X290646Y442000D01*
X283500Y437000D02*
X290646D01*
X283000Y437500D02*
X283500Y437000D01*
X275000Y445000D02*
Y453000D01*
X327000Y437000D02*
X331000Y433000D01*
X331500Y445500D02*
Y450000D01*
X328000Y442000D02*
X331500Y445500D01*
X311354Y437000D02*
X327000D01*
X311354Y442000D02*
X328000D01*
D74*
X324549Y407900D02*
X325100D01*
X319389Y402740D02*
X324549Y407900D01*
X307740Y402740D02*
X319389D01*
X370933Y358750D02*
X391000D01*
X311500Y454000D02*
Y460000D01*
X269000Y437500D02*
X275000D01*
X391100Y310500D02*
X411228D01*
X416028Y315300D01*
X420358D01*
X391222Y330400D02*
X408228D01*
X416128Y338300D01*
X420458D01*
X391000Y350900D02*
X405728D01*
X416028Y361200D01*
X420358D01*
X382694Y311556D02*
X383750Y310500D01*
X391100D01*
X370883Y317855D02*
X395756D01*
X398311Y315300D02*
X402642D01*
X395756Y317855D02*
X398311Y315300D01*
X390381Y331241D02*
X391222Y330400D01*
X382694Y331241D02*
X390381D01*
X371263Y337920D02*
X402362D01*
X402742Y338300D01*
X370883Y337540D02*
X371263Y337920D01*
X390407Y350900D02*
X391000D01*
X390381Y350926D02*
X390407Y350900D01*
X382694Y350926D02*
X390381D01*
X370883Y358800D02*
X370933Y358750D01*
X424555Y437500D02*
X426000D01*
X415555Y428500D02*
X424555Y437500D01*
X378000Y428500D02*
X415555D01*
X358500D02*
X370000D01*
X339500D02*
X350500D01*
X358500Y450000D02*
X370000D01*
X339500D02*
X350500D01*
X283000Y431500D02*
Y437500D01*
D75*
X466000Y441000D02*
Y505700D01*
X453700Y518000D02*
X466000Y505700D01*
X351800Y518000D02*
X453700D01*
X338188Y531612D02*
X351800Y518000D01*
X338188Y531612D02*
Y547400D01*
D76*
X397243D02*
Y565757D01*
X386387Y576613D02*
X397243Y565757D01*
X305613Y576613D02*
X386387D01*
X280000Y551000D02*
X305613Y576613D01*
X269630Y551000D02*
X280000D01*
X257000Y562000D02*
X271613Y576613D01*
X224311Y562000D02*
X257000D01*
X216972Y554661D02*
X224311Y562000D01*
X271613Y576613D02*
X276500D01*
X245928Y486939D02*
Y494072D01*
X216400Y523600D02*
X245928Y494072D01*
X216400Y523600D02*
Y526661D01*
X208341Y478187D02*
X213028Y473501D01*
Y458748D02*
Y473501D01*
X182800Y478187D02*
X208341D01*
D77*
X190500Y294000D02*
X196528D01*
X362600Y261500D02*
X368438D01*
X355100D02*
X362600D01*
X369563Y260375D02*
X370883D01*
X368438Y261500D02*
X369563Y260375D01*
D78*
X195014Y227000D02*
D03*
D79*
X356200Y214450D02*
D03*
D80*
X340000Y372000D02*
D03*
X350000D02*
D03*
X340000Y362000D02*
D03*
X350000D02*
D03*
X340000Y352000D02*
D03*
X350000D02*
D03*
X340000Y342000D02*
D03*
X350000D02*
D03*
X340000Y332000D02*
D03*
X350000D02*
D03*
X340000Y322000D02*
D03*
X350000D02*
D03*
X340000Y312000D02*
D03*
X350000D02*
D03*
X250000Y405000D02*
D03*
X248500Y366000D02*
D03*
D81*
X338188Y547400D02*
D03*
X367715D02*
D03*
X397243D02*
D03*
X436613D02*
D03*
D82*
X182800Y576613D02*
D03*
Y478187D02*
D03*
D83*
X426000Y437500D02*
D03*
X466000D02*
D03*
D84*
X325100Y217900D02*
D03*
D85*
X298500Y338300D02*
D03*
X313000Y366000D02*
D03*
Y373000D02*
D03*
Y378000D02*
D03*
X347200Y237980D02*
D03*
X311500Y460000D02*
D03*
X269000Y437500D02*
D03*
X405000Y245000D02*
D03*
X172500Y248600D02*
D03*
X170000D02*
D03*
X172500Y237600D02*
D03*
X170000D02*
D03*
X283000Y431500D02*
D03*
X345600Y258100D02*
D03*
X345700Y247900D02*
D03*
X358700Y214000D02*
D03*
X361200D02*
D03*
X363700D02*
D03*
X356100D02*
D03*
X353600D02*
D03*
X351100D02*
D03*
X348600D02*
D03*
X333000Y222000D02*
D03*
X398000Y217900D02*
D03*
X347200Y228000D02*
D03*
Y267900D02*
D03*
Y277900D02*
D03*
X461000Y236500D02*
D03*
X460900Y255100D02*
D03*
Y284500D02*
D03*
X220200Y330119D02*
D03*
Y327619D02*
D03*
Y325119D02*
D03*
Y322619D02*
D03*
X190600Y295300D02*
D03*
Y292800D02*
D03*
X202000Y294278D02*
D03*
X182665Y285000D02*
D03*
X244900Y307000D02*
D03*
X232500Y317000D02*
D03*
Y314500D02*
D03*
Y312000D02*
D03*
X165165Y285000D02*
D03*
X170331Y280000D02*
D03*
Y282500D02*
D03*
Y285000D02*
D03*
Y287500D02*
D03*
Y290000D02*
D03*
X172831D02*
D03*
Y287500D02*
D03*
Y285000D02*
D03*
Y282500D02*
D03*
Y280000D02*
D03*
X175331Y290000D02*
D03*
Y287500D02*
D03*
Y285000D02*
D03*
Y282500D02*
D03*
Y280000D02*
D03*
X177831Y290000D02*
D03*
Y287500D02*
D03*
Y285000D02*
D03*
Y282500D02*
D03*
Y280000D02*
D03*
X167665Y277500D02*
D03*
X170165D02*
D03*
X172665D02*
D03*
X175165D02*
D03*
X177665D02*
D03*
X167665Y290000D02*
D03*
Y287500D02*
D03*
Y285000D02*
D03*
Y282500D02*
D03*
Y280000D02*
D03*
X165165Y287500D02*
D03*
Y282500D02*
D03*
Y280000D02*
D03*
Y277500D02*
D03*
Y290000D02*
D03*
X167665Y295000D02*
D03*
X177665Y292500D02*
D03*
X175165D02*
D03*
X172665D02*
D03*
X170165D02*
D03*
X167665D02*
D03*
X177665Y295000D02*
D03*
X175165D02*
D03*
X172665D02*
D03*
X170165D02*
D03*
X165165Y292500D02*
D03*
Y295000D02*
D03*
X167665Y275000D02*
D03*
X170165D02*
D03*
X172665D02*
D03*
X175165D02*
D03*
X177665D02*
D03*
X165165D02*
D03*
X180165D02*
D03*
X182665D02*
D03*
X180165Y280000D02*
D03*
Y282500D02*
D03*
Y285000D02*
D03*
Y287500D02*
D03*
Y290000D02*
D03*
X182665Y277500D02*
D03*
X180165D02*
D03*
X182665Y290000D02*
D03*
Y287500D02*
D03*
Y282500D02*
D03*
Y280000D02*
D03*
X180165Y295000D02*
D03*
X182665Y292500D02*
D03*
X180165D02*
D03*
X182665Y295000D02*
D03*
X242500Y294500D02*
D03*
X245000D02*
D03*
Y292000D02*
D03*
X242500D02*
D03*
X240000Y297000D02*
D03*
Y294500D02*
D03*
Y292000D02*
D03*
X245000Y297000D02*
D03*
X242500D02*
D03*
X227500Y294500D02*
D03*
X230000D02*
D03*
X232500D02*
D03*
X235000D02*
D03*
X237500D02*
D03*
Y292000D02*
D03*
X235000D02*
D03*
X232500D02*
D03*
X230000D02*
D03*
X227500D02*
D03*
X225000Y297000D02*
D03*
Y294500D02*
D03*
Y292000D02*
D03*
X237500Y297000D02*
D03*
X235000D02*
D03*
X232500D02*
D03*
X230000D02*
D03*
X227500D02*
D03*
X215000Y294500D02*
D03*
X217500D02*
D03*
X220000D02*
D03*
X222500D02*
D03*
Y292000D02*
D03*
X220000D02*
D03*
X217500D02*
D03*
X215000D02*
D03*
X222500Y297000D02*
D03*
X220000D02*
D03*
X217500D02*
D03*
X215000D02*
D03*
X220000Y314500D02*
D03*
X217500D02*
D03*
X215000D02*
D03*
Y317000D02*
D03*
X217500D02*
D03*
X220000D02*
D03*
X222500Y312000D02*
D03*
Y314500D02*
D03*
Y317000D02*
D03*
X215000Y312000D02*
D03*
X217500D02*
D03*
X220000D02*
D03*
Y302000D02*
D03*
X217500D02*
D03*
X215000D02*
D03*
Y304500D02*
D03*
X217500D02*
D03*
X220000D02*
D03*
X215000Y307000D02*
D03*
X217500D02*
D03*
X220000D02*
D03*
X215000Y309500D02*
D03*
X217500D02*
D03*
X220000D02*
D03*
X222500Y299500D02*
D03*
Y302000D02*
D03*
Y304500D02*
D03*
Y307000D02*
D03*
Y309500D02*
D03*
X215000Y299500D02*
D03*
X217500D02*
D03*
X220000D02*
D03*
X245000Y317000D02*
D03*
X242500D02*
D03*
X245000Y314500D02*
D03*
X242500D02*
D03*
X245000Y312000D02*
D03*
X242500D02*
D03*
X240000Y317000D02*
D03*
Y314500D02*
D03*
Y312000D02*
D03*
X242500Y307000D02*
D03*
X245000Y304500D02*
D03*
X242500D02*
D03*
X245000Y302000D02*
D03*
X242500D02*
D03*
X245000Y299500D02*
D03*
X242500D02*
D03*
X240000Y309500D02*
D03*
Y307000D02*
D03*
Y304500D02*
D03*
Y302000D02*
D03*
Y299500D02*
D03*
X245000Y309500D02*
D03*
X242500D02*
D03*
X235000Y314500D02*
D03*
X230000D02*
D03*
X227500D02*
D03*
X225000D02*
D03*
Y317000D02*
D03*
X227500D02*
D03*
X230000D02*
D03*
X235000D02*
D03*
X237500Y312000D02*
D03*
Y314500D02*
D03*
Y317000D02*
D03*
X225000Y312000D02*
D03*
X227500D02*
D03*
X230000D02*
D03*
X235000D02*
D03*
X227500Y309500D02*
D03*
X230000D02*
D03*
X232500D02*
D03*
X235000D02*
D03*
X237500D02*
D03*
X225000Y299500D02*
D03*
Y302000D02*
D03*
Y304500D02*
D03*
Y307000D02*
D03*
Y309500D02*
D03*
X227500Y299500D02*
D03*
X230000D02*
D03*
X232500D02*
D03*
X235000D02*
D03*
X237500D02*
D03*
X227500Y302000D02*
D03*
X230000D02*
D03*
X232500D02*
D03*
X235000D02*
D03*
X237500D02*
D03*
X227500Y304500D02*
D03*
X230000D02*
D03*
X232500D02*
D03*
X235000D02*
D03*
X237500D02*
D03*
Y307000D02*
D03*
X235000D02*
D03*
X232500D02*
D03*
X230000D02*
D03*
X227500D02*
D03*
M02*
