G04*
G04 #@! TF.GenerationSoftware,Altium Limited,Altium Designer,19.0.12 (326)*
G04*
G04 Layer_Physical_Order=2*
G04 Layer_Color=16711680*
%FSLAX25Y25*%
%MOIN*%
G70*
G01*
G75*
%ADD13C,0.01000*%
%ADD15C,0.02000*%
%ADD46C,0.06000*%
%ADD49C,0.07874*%
%ADD55O,0.07874X0.05512*%
%ADD56R,0.07874X0.05512*%
%ADD57C,0.03000*%
%ADD74C,0.02500*%
%ADD75C,0.10000*%
%ADD76C,0.08000*%
%ADD77C,0.05000*%
%ADD80C,0.06000*%
%ADD81C,0.08386*%
%ADD82C,0.10000*%
%ADD83C,0.20000*%
%ADD84O,0.07874X0.07874*%
%ADD85C,0.02000*%
G36*
X175500Y270500D02*
X175548Y270988D01*
X175921Y271889D01*
X176611Y272579D01*
X177512Y272952D01*
X178000Y273000D01*
X178000Y273000D01*
X181667Y273000D01*
X181954Y273008D01*
X182514Y273136D01*
X183039Y273371D01*
X183507Y273704D01*
X183902Y274122D01*
X184207Y274609D01*
X184412Y275146D01*
X184508Y275713D01*
X184500Y276000D01*
X184500Y276000D01*
X184500Y295500D01*
X184500Y295798D01*
X184272Y296350D01*
X183850Y296772D01*
X183298Y297000D01*
X183000Y297000D01*
X183000Y297000D01*
X162500D01*
X162102D01*
X161367Y296695D01*
X160804Y296133D01*
X160500Y295398D01*
Y295000D01*
D01*
Y233500D01*
Y233102D01*
X160804Y232367D01*
X161367Y231804D01*
X162102Y231500D01*
X162500D01*
D01*
X173500D01*
X173898Y231500D01*
X174633Y231804D01*
X175196Y232367D01*
X175500Y233102D01*
X175500Y233500D01*
X175500Y233500D01*
Y270500D01*
D02*
G37*
G36*
X217900Y331000D02*
Y331159D01*
X218022Y331453D01*
X218247Y331678D01*
X218541Y331800D01*
X218700D01*
D01*
X221000D01*
X221159D01*
X221453Y331678D01*
X221678Y331453D01*
X221800Y331159D01*
Y331000D01*
D01*
X221800Y321600D01*
X221800Y321481D01*
X221709Y321260D01*
X221540Y321091D01*
X221319Y321000D01*
X221200Y321000D01*
X221200Y321000D01*
X219000Y321000D01*
X218781D01*
X218377Y321167D01*
X218068Y321477D01*
X217900Y321881D01*
Y322100D01*
X217900D01*
Y331000D01*
D02*
G37*
G36*
X213800Y318702D02*
Y204530D01*
X213800Y203857D01*
X214062Y202538D01*
X214577Y201296D01*
X215324Y200177D01*
X215800Y199702D01*
X215800Y199702D01*
X365000Y200299D01*
Y215202D01*
X347400D01*
Y209702D01*
X256800D01*
X255820Y209750D01*
X253897Y210132D01*
X252086Y210882D01*
X250456Y211971D01*
X249070Y213358D01*
X247981Y214988D01*
X247231Y216799D01*
X246848Y218722D01*
X246800Y219702D01*
Y219702D01*
Y317702D01*
Y317901D01*
X246648Y318268D01*
X246366Y318549D01*
X245999Y318702D01*
X245800D01*
D01*
X213800D01*
D02*
G37*
D13*
X309000Y366000D02*
X313000D01*
X280900Y337900D02*
X309000Y366000D01*
X265100Y337900D02*
X280900D01*
X305472Y373000D02*
X313000D01*
X280372Y347900D02*
X305472Y373000D01*
X265100Y347900D02*
X280372D01*
X301000Y378000D02*
X313000D01*
X280900Y357900D02*
X301000Y378000D01*
X265100Y357900D02*
X280900D01*
X345000Y337000D02*
X350000Y332000D01*
X336000Y337000D02*
X345000D01*
X325100Y347900D02*
X336000Y337000D01*
X345000Y347000D02*
X350000Y342000D01*
X336000Y347000D02*
X345000D01*
X325100Y357900D02*
X336000Y347000D01*
X325715Y337900D02*
X336615Y327000D01*
X325100Y337900D02*
X325715D01*
X336615Y327000D02*
X345000D01*
X350000Y322000D01*
X345000Y317000D02*
X350000Y312000D01*
X336000Y317000D02*
X345000D01*
X325100Y327900D02*
X336000Y317000D01*
D15*
X298500Y300500D02*
Y338300D01*
X275900Y277900D02*
X298500Y300500D01*
X265100Y277900D02*
X275900D01*
D46*
X337000Y403000D02*
Y426000D01*
X325500Y437500D02*
X337000Y426000D01*
X311500Y437500D02*
X325500D01*
X258500D02*
X269000D01*
X240000Y419000D02*
X258500Y437500D01*
X240000Y392500D02*
Y419000D01*
Y392500D02*
X256000Y376500D01*
X332259Y398259D02*
X337000Y403000D01*
X269000Y437500D02*
X311500D01*
X172800Y329985D02*
Y342930D01*
Y329985D02*
X176385Y326400D01*
X311500Y437500D02*
Y460000D01*
X305600Y387900D02*
X325100D01*
X275000Y418500D02*
X305600Y387900D01*
X254500Y418500D02*
X275000D01*
X325459Y398259D02*
X332259D01*
X325100Y397900D02*
X325459Y398259D01*
X256000Y350500D02*
Y376500D01*
X248500Y343000D02*
X256000Y350500D01*
X250000Y414000D02*
X254500Y418500D01*
X250000Y405000D02*
Y414000D01*
X181000Y366000D02*
X248500D01*
X233500Y343000D02*
X248500D01*
X163500Y348500D02*
X181000Y366000D01*
X163500Y295415D02*
Y348500D01*
X176385Y326400D02*
X218500D01*
X172800Y342930D02*
X172870Y343000D01*
D49*
X276500Y576613D02*
D03*
X246500D02*
D03*
X216400D02*
D03*
X245928Y486939D02*
D03*
X216400Y495600D02*
D03*
X245928Y518000D02*
D03*
X216400Y526661D02*
D03*
X216972Y554661D02*
D03*
X246500Y546000D02*
D03*
X309000Y551000D02*
D03*
X269630D02*
D03*
X269800Y521000D02*
D03*
X309170D02*
D03*
Y491200D02*
D03*
X269800D02*
D03*
X265100Y217900D02*
D03*
Y227900D02*
D03*
Y237900D02*
D03*
Y247900D02*
D03*
Y257900D02*
D03*
Y267900D02*
D03*
Y277900D02*
D03*
Y287900D02*
D03*
Y297900D02*
D03*
Y307900D02*
D03*
Y317900D02*
D03*
Y327900D02*
D03*
Y337900D02*
D03*
Y347900D02*
D03*
Y357900D02*
D03*
Y367900D02*
D03*
Y377900D02*
D03*
Y387900D02*
D03*
Y397900D02*
D03*
Y407900D02*
D03*
X325100D02*
D03*
Y397900D02*
D03*
Y387900D02*
D03*
Y377900D02*
D03*
Y367900D02*
D03*
Y357900D02*
D03*
Y347900D02*
D03*
Y337900D02*
D03*
Y327900D02*
D03*
Y317900D02*
D03*
Y307900D02*
D03*
Y297900D02*
D03*
Y287900D02*
D03*
Y277900D02*
D03*
Y267900D02*
D03*
Y257900D02*
D03*
Y247900D02*
D03*
Y237900D02*
D03*
Y227900D02*
D03*
X517600Y272000D02*
D03*
Y308662D02*
D03*
Y327284D02*
D03*
Y345906D02*
D03*
X518000Y362000D02*
D03*
X517600Y290000D02*
D03*
X213028Y458748D02*
D03*
X193342D02*
D03*
X172870Y343000D02*
D03*
X233500D02*
D03*
D55*
X370883Y337540D02*
D03*
X382694Y311556D02*
D03*
X370883Y317855D02*
D03*
Y247776D02*
D03*
Y298170D02*
D03*
Y285572D02*
D03*
Y272973D02*
D03*
Y260375D02*
D03*
X483481Y308662D02*
D03*
Y290040D02*
D03*
Y327284D02*
D03*
Y345906D02*
D03*
Y364528D02*
D03*
Y271418D02*
D03*
Y252796D02*
D03*
Y234174D02*
D03*
X382694Y331241D02*
D03*
Y239902D02*
D03*
Y254076D02*
D03*
Y266674D02*
D03*
Y279272D02*
D03*
Y291871D02*
D03*
Y350926D02*
D03*
D56*
X370883Y358800D02*
D03*
D57*
X460900Y236500D02*
Y255100D01*
X350000Y372000D02*
Y379000D01*
X341100Y387900D02*
X350000Y379000D01*
X325100Y387900D02*
X341100D01*
X350000Y352000D02*
Y362000D01*
X246300Y545800D02*
Y576413D01*
X246500Y576613D01*
X357000Y242500D02*
Y267500D01*
X352480Y237980D02*
X357000Y242500D01*
X347200Y237980D02*
X352480D01*
X344500Y233000D02*
X356930D01*
X341500Y236000D02*
X344500Y233000D01*
X341500Y236000D02*
Y245500D01*
X343900Y247900D01*
X357000Y267500D02*
X362473Y272973D01*
X343900Y247900D02*
X345700D01*
X339296Y252796D02*
X351296D01*
X336000Y249500D02*
X339296Y252796D01*
X336000Y231000D02*
Y249500D01*
X339000Y228000D02*
X347200D01*
X336000Y231000D02*
X339000Y228000D01*
X363500Y239570D02*
Y264000D01*
X356930Y233000D02*
X363500Y239570D01*
X362473Y272973D02*
X370883D01*
X356372Y279272D02*
X382694D01*
X353000Y275900D02*
X356372Y279272D01*
X353000Y254500D02*
Y275900D01*
X351296Y252796D02*
X353000Y254500D01*
X341796Y287296D02*
X346371Y291871D01*
X341796Y273324D02*
Y287296D01*
Y273324D02*
X347200Y267920D01*
X336000Y290900D02*
X343270Y298170D01*
X336000Y267700D02*
Y290900D01*
Y267700D02*
X345600Y258100D01*
X402224Y247776D02*
X405000Y245000D01*
X333000Y222000D02*
X398000D01*
X410500Y234500D01*
Y247500D01*
X403924Y254076D02*
X410500Y247500D01*
X382694Y254076D02*
X403924D01*
X370883Y247776D02*
X402224D01*
X329000Y218002D02*
X398000Y217900D01*
X366416Y266916D02*
X382452D01*
X363500Y264000D02*
X366416Y266916D01*
X382452D02*
X382694Y266674D01*
X346371Y291871D02*
X382694D01*
X347200Y283814D02*
X348957Y285572D01*
X370883D01*
X347200Y277900D02*
Y283814D01*
X343270Y298170D02*
X370883D01*
X460900Y255100D02*
Y284500D01*
D74*
X301600Y407900D02*
X325100D01*
X283000Y426500D02*
X301600Y407900D01*
X283000Y426500D02*
Y431500D01*
D75*
X426000Y536683D02*
X436613Y547296D01*
X426000Y437500D02*
Y536683D01*
D76*
X309170Y521000D02*
Y575443D01*
X203000Y495000D02*
Y497000D01*
X195000Y505000D02*
X203000Y497000D01*
X195000Y505000D02*
Y547000D01*
X283000Y472000D02*
X302000Y491000D01*
X290000Y503000D02*
X302000Y491000D01*
X290000Y503000D02*
Y543000D01*
X302200Y491200D02*
X309170D01*
X255000Y472000D02*
X283000D01*
X213028Y458748D02*
X222748D01*
X245500Y481500D02*
Y486511D01*
X245928Y486939D01*
X245500Y481500D02*
X255000Y472000D01*
X222748Y458748D02*
X245500Y481500D01*
X202661Y554661D02*
X216972D01*
X195000Y547000D02*
X202661Y554661D01*
X203000Y495000D02*
X215800D01*
X203000Y471000D02*
Y495000D01*
X193342Y461342D02*
X203000Y471000D01*
X193342Y458748D02*
Y461342D01*
X215800Y495000D02*
X216400Y495600D01*
X282000Y551000D02*
X290000Y543000D01*
X269630Y551000D02*
X282000D01*
X308000Y576613D02*
X357387D01*
X276500D02*
X308000D01*
X309170Y575443D01*
X367715Y547400D02*
Y566285D01*
X357387Y576613D02*
X367715Y566285D01*
X245928Y576040D02*
X246300Y576413D01*
X245928Y518000D02*
Y576040D01*
Y518000D02*
X248928Y521000D01*
X269800D01*
Y491200D02*
Y521000D01*
X436613Y547296D02*
Y547400D01*
X469000Y353500D02*
X476594Y345906D01*
X483481D01*
X469000Y353500D02*
Y394500D01*
X426000Y437500D02*
X469000Y394500D01*
X466000Y437500D02*
X501000Y402500D01*
Y369000D02*
Y402500D01*
Y369000D02*
X508000Y362000D01*
X502000Y356000D02*
X508000Y362000D01*
X518000D01*
X502000Y276686D02*
Y356000D01*
Y276686D02*
X506686Y272000D01*
X517600D01*
D77*
X190500Y294000D02*
X214500D01*
X215000Y294500D01*
D80*
X340000Y372000D02*
D03*
X350000D02*
D03*
X340000Y362000D02*
D03*
X350000D02*
D03*
X340000Y352000D02*
D03*
X350000D02*
D03*
X340000Y342000D02*
D03*
X350000D02*
D03*
X340000Y332000D02*
D03*
X350000D02*
D03*
X340000Y322000D02*
D03*
X350000D02*
D03*
X340000Y312000D02*
D03*
X350000D02*
D03*
X250000Y405000D02*
D03*
X248500Y366000D02*
D03*
D81*
X338188Y547400D02*
D03*
X367715D02*
D03*
X397243D02*
D03*
X436613D02*
D03*
D82*
X182800Y576613D02*
D03*
Y478187D02*
D03*
D83*
X426000Y437500D02*
D03*
X466000D02*
D03*
D84*
X325100Y217900D02*
D03*
D85*
X298500Y338300D02*
D03*
X313000Y366000D02*
D03*
Y373000D02*
D03*
Y378000D02*
D03*
X347200Y237980D02*
D03*
X311500Y460000D02*
D03*
X269000Y437500D02*
D03*
X405000Y245000D02*
D03*
X172500Y248600D02*
D03*
X170000D02*
D03*
X172500Y237600D02*
D03*
X170000D02*
D03*
X283000Y431500D02*
D03*
X345600Y258100D02*
D03*
X345700Y247900D02*
D03*
X358700Y214000D02*
D03*
X361200D02*
D03*
X363700D02*
D03*
X356100D02*
D03*
X353600D02*
D03*
X351100D02*
D03*
X348600D02*
D03*
X333000Y222000D02*
D03*
X398000Y217900D02*
D03*
X347200Y228000D02*
D03*
Y267900D02*
D03*
Y277900D02*
D03*
X461000Y236500D02*
D03*
X460900Y255100D02*
D03*
Y284500D02*
D03*
X220200Y330119D02*
D03*
Y327619D02*
D03*
Y325119D02*
D03*
Y322619D02*
D03*
X190600Y295300D02*
D03*
Y292800D02*
D03*
X202000Y294278D02*
D03*
X182665Y285000D02*
D03*
X244900Y307000D02*
D03*
X232500Y317000D02*
D03*
Y314500D02*
D03*
Y312000D02*
D03*
X165165Y285000D02*
D03*
X170331Y280000D02*
D03*
Y282500D02*
D03*
Y285000D02*
D03*
Y287500D02*
D03*
Y290000D02*
D03*
X172831D02*
D03*
Y287500D02*
D03*
Y285000D02*
D03*
Y282500D02*
D03*
Y280000D02*
D03*
X175331Y290000D02*
D03*
Y287500D02*
D03*
Y285000D02*
D03*
Y282500D02*
D03*
Y280000D02*
D03*
X177831Y290000D02*
D03*
Y287500D02*
D03*
Y285000D02*
D03*
Y282500D02*
D03*
Y280000D02*
D03*
X167665Y277500D02*
D03*
X170165D02*
D03*
X172665D02*
D03*
X175165D02*
D03*
X177665D02*
D03*
X167665Y290000D02*
D03*
Y287500D02*
D03*
Y285000D02*
D03*
Y282500D02*
D03*
Y280000D02*
D03*
X165165Y287500D02*
D03*
Y282500D02*
D03*
Y280000D02*
D03*
Y277500D02*
D03*
Y290000D02*
D03*
X167665Y295000D02*
D03*
X177665Y292500D02*
D03*
X175165D02*
D03*
X172665D02*
D03*
X170165D02*
D03*
X167665D02*
D03*
X177665Y295000D02*
D03*
X175165D02*
D03*
X172665D02*
D03*
X170165D02*
D03*
X165165Y292500D02*
D03*
Y295000D02*
D03*
X167665Y275000D02*
D03*
X170165D02*
D03*
X172665D02*
D03*
X175165D02*
D03*
X177665D02*
D03*
X165165D02*
D03*
X180165D02*
D03*
X182665D02*
D03*
X180165Y280000D02*
D03*
Y282500D02*
D03*
Y285000D02*
D03*
Y287500D02*
D03*
Y290000D02*
D03*
X182665Y277500D02*
D03*
X180165D02*
D03*
X182665Y290000D02*
D03*
Y287500D02*
D03*
Y282500D02*
D03*
Y280000D02*
D03*
X180165Y295000D02*
D03*
X182665Y292500D02*
D03*
X180165D02*
D03*
X182665Y295000D02*
D03*
X242500Y294500D02*
D03*
X245000D02*
D03*
Y292000D02*
D03*
X242500D02*
D03*
X240000Y297000D02*
D03*
Y294500D02*
D03*
Y292000D02*
D03*
X245000Y297000D02*
D03*
X242500D02*
D03*
X227500Y294500D02*
D03*
X230000D02*
D03*
X232500D02*
D03*
X235000D02*
D03*
X237500D02*
D03*
Y292000D02*
D03*
X235000D02*
D03*
X232500D02*
D03*
X230000D02*
D03*
X227500D02*
D03*
X225000Y297000D02*
D03*
Y294500D02*
D03*
Y292000D02*
D03*
X237500Y297000D02*
D03*
X235000D02*
D03*
X232500D02*
D03*
X230000D02*
D03*
X227500D02*
D03*
X215000Y294500D02*
D03*
X217500D02*
D03*
X220000D02*
D03*
X222500D02*
D03*
Y292000D02*
D03*
X220000D02*
D03*
X217500D02*
D03*
X215000D02*
D03*
X222500Y297000D02*
D03*
X220000D02*
D03*
X217500D02*
D03*
X215000D02*
D03*
X220000Y314500D02*
D03*
X217500D02*
D03*
X215000D02*
D03*
Y317000D02*
D03*
X217500D02*
D03*
X220000D02*
D03*
X222500Y312000D02*
D03*
Y314500D02*
D03*
Y317000D02*
D03*
X215000Y312000D02*
D03*
X217500D02*
D03*
X220000D02*
D03*
Y302000D02*
D03*
X217500D02*
D03*
X215000D02*
D03*
Y304500D02*
D03*
X217500D02*
D03*
X220000D02*
D03*
X215000Y307000D02*
D03*
X217500D02*
D03*
X220000D02*
D03*
X215000Y309500D02*
D03*
X217500D02*
D03*
X220000D02*
D03*
X222500Y299500D02*
D03*
Y302000D02*
D03*
Y304500D02*
D03*
Y307000D02*
D03*
Y309500D02*
D03*
X215000Y299500D02*
D03*
X217500D02*
D03*
X220000D02*
D03*
X245000Y317000D02*
D03*
X242500D02*
D03*
X245000Y314500D02*
D03*
X242500D02*
D03*
X245000Y312000D02*
D03*
X242500D02*
D03*
X240000Y317000D02*
D03*
Y314500D02*
D03*
Y312000D02*
D03*
X242500Y307000D02*
D03*
X245000Y304500D02*
D03*
X242500D02*
D03*
X245000Y302000D02*
D03*
X242500D02*
D03*
X245000Y299500D02*
D03*
X242500D02*
D03*
X240000Y309500D02*
D03*
Y307000D02*
D03*
Y304500D02*
D03*
Y302000D02*
D03*
Y299500D02*
D03*
X245000Y309500D02*
D03*
X242500D02*
D03*
X235000Y314500D02*
D03*
X230000D02*
D03*
X227500D02*
D03*
X225000D02*
D03*
Y317000D02*
D03*
X227500D02*
D03*
X230000D02*
D03*
X235000D02*
D03*
X237500Y312000D02*
D03*
Y314500D02*
D03*
Y317000D02*
D03*
X225000Y312000D02*
D03*
X227500D02*
D03*
X230000D02*
D03*
X235000D02*
D03*
X227500Y309500D02*
D03*
X230000D02*
D03*
X232500D02*
D03*
X235000D02*
D03*
X237500D02*
D03*
X225000Y299500D02*
D03*
Y302000D02*
D03*
Y304500D02*
D03*
Y307000D02*
D03*
Y309500D02*
D03*
X227500Y299500D02*
D03*
X230000D02*
D03*
X232500D02*
D03*
X235000D02*
D03*
X237500D02*
D03*
X227500Y302000D02*
D03*
X230000D02*
D03*
X232500D02*
D03*
X235000D02*
D03*
X237500D02*
D03*
X227500Y304500D02*
D03*
X230000D02*
D03*
X232500D02*
D03*
X235000D02*
D03*
X237500D02*
D03*
Y307000D02*
D03*
X235000D02*
D03*
X232500D02*
D03*
X230000D02*
D03*
X227500D02*
D03*
M02*
