G04*
G04 #@! TF.GenerationSoftware,Altium Limited,Altium Designer,19.0.12 (326)*
G04*
G04 Layer_Color=16711935*
%FSLAX25Y25*%
%MOIN*%
G70*
G01*
G75*
%ADD47C,0.06800*%
%ADD48C,0.09186*%
%ADD49C,0.07874*%
%ADD50C,0.08674*%
%ADD51C,0.10800*%
%ADD52C,0.20800*%
%ADD54O,0.08674X0.08674*%
%ADD55O,0.07874X0.05512*%
%ADD56R,0.07874X0.05512*%
%ADD76C,0.08000*%
D47*
X340000Y372000D02*
D03*
X350000D02*
D03*
X340000Y362000D02*
D03*
X350000D02*
D03*
X340000Y352000D02*
D03*
X350000D02*
D03*
X340000Y342000D02*
D03*
X350000D02*
D03*
X340000Y332000D02*
D03*
X350000D02*
D03*
X340000Y322000D02*
D03*
X350000D02*
D03*
X340000Y312000D02*
D03*
X350000D02*
D03*
D48*
X338188Y547400D02*
D03*
X367715D02*
D03*
X397243D02*
D03*
X436613D02*
D03*
D49*
X276500Y576613D02*
D03*
X246500D02*
D03*
X216400D02*
D03*
X517600Y272000D02*
D03*
Y308662D02*
D03*
Y327284D02*
D03*
Y345906D02*
D03*
X518000Y362000D02*
D03*
X517600Y290000D02*
D03*
D50*
X245928Y486939D02*
D03*
X216400Y495600D02*
D03*
X245928Y518000D02*
D03*
X216400Y526661D02*
D03*
X216972Y554661D02*
D03*
X246500Y546000D02*
D03*
X309000Y551000D02*
D03*
X269630D02*
D03*
X269800Y521000D02*
D03*
X309170D02*
D03*
Y491200D02*
D03*
X269800D02*
D03*
X265100Y217900D02*
D03*
Y227900D02*
D03*
Y237900D02*
D03*
Y247900D02*
D03*
Y257900D02*
D03*
Y267900D02*
D03*
Y277900D02*
D03*
Y287900D02*
D03*
Y297900D02*
D03*
Y307900D02*
D03*
Y317900D02*
D03*
Y327900D02*
D03*
Y337900D02*
D03*
Y347900D02*
D03*
Y357900D02*
D03*
Y367900D02*
D03*
Y377900D02*
D03*
Y387900D02*
D03*
Y397900D02*
D03*
Y407900D02*
D03*
X325100D02*
D03*
Y397900D02*
D03*
Y387900D02*
D03*
Y377900D02*
D03*
Y367900D02*
D03*
Y357900D02*
D03*
Y347900D02*
D03*
Y337900D02*
D03*
Y327900D02*
D03*
Y317900D02*
D03*
Y307900D02*
D03*
Y297900D02*
D03*
Y287900D02*
D03*
Y277900D02*
D03*
Y267900D02*
D03*
Y257900D02*
D03*
Y247900D02*
D03*
Y237900D02*
D03*
Y227900D02*
D03*
X213028Y458748D02*
D03*
X193342D02*
D03*
X172870Y343000D02*
D03*
X233500D02*
D03*
D51*
X182800Y576613D02*
D03*
Y478187D02*
D03*
D52*
X426000Y437500D02*
D03*
X466000D02*
D03*
D54*
X325100Y217900D02*
D03*
D55*
X370883Y337540D02*
D03*
X382694Y311556D02*
D03*
X370883Y317855D02*
D03*
Y247776D02*
D03*
Y298170D02*
D03*
Y285572D02*
D03*
Y272973D02*
D03*
Y260375D02*
D03*
X483481Y308662D02*
D03*
Y290040D02*
D03*
Y327284D02*
D03*
Y345906D02*
D03*
Y364528D02*
D03*
Y271418D02*
D03*
Y252796D02*
D03*
Y234174D02*
D03*
X382694Y331241D02*
D03*
Y239902D02*
D03*
Y254076D02*
D03*
Y266674D02*
D03*
Y279272D02*
D03*
Y291871D02*
D03*
Y350926D02*
D03*
D56*
X370883Y358800D02*
D03*
D76*
X469000Y353500D02*
X476594Y345906D01*
X483481D01*
X469000Y353500D02*
Y394500D01*
X426000Y437500D02*
X469000Y394500D01*
X466000Y437500D02*
X501000Y402500D01*
Y369000D02*
Y402500D01*
Y369000D02*
X508000Y362000D01*
X502000Y356000D02*
X508000Y362000D01*
X518000D01*
X502000Y276686D02*
Y356000D01*
Y276686D02*
X506686Y272000D01*
X517600D01*
M02*
