M48
;Layer_Color=9474304
;FILE_FORMAT=2:4
INCH,TZ
;TYPE=PLATED
T1F00S00C0.0394
T2F00S00C0.0984
%
T01
X2352Y490
X4152
X10502
X12302
X19902
X21702
X29802
X31602
Y3090
X29802
X21702
X19902
X12302
X10502
X10802Y7640
X11802
X12802
X13802
X14802
X15802
X16802
Y8640
X15802
X14802
X13802
X12802
X11802
X10802
X4152Y3090
X2352
X1902Y12690
Y13690
Y14690
Y17590
Y18590
Y19590
X6004Y22592
X7054
X8054
X9054
X10054
X11054
X12054
X13054
X14054
X15054
X16054
X17054
X18054
X19054
X20054
X21054
T02
X33366Y10387
X3839Y10387
Y22592
X33366
M30
